<?xml version="1.0" encoding="utf-8"?><svg viewBox="0, 0, 1000, 1000" xmlns="http://www.w3.org/2000/svg" xmlns:xlink="http://www.w3.org/1999/xlink"><style>:root>svg{display:none}:root>svg:target{display:block}</style><svg viewBox="0 0 32 32" fill="none" id="icon-expander-explorer-dark" xmlns="http://www.w3.org/2000/svg"><circle cx="16" cy="16" r="8.75" stroke="url(#aanavigation__paint0_linear_3428_76294)" stroke-width="2.5"/><path d="M16.5652 15.5652L15.8332 15.8581L15.5652 16.5652L16.3075 16.2723L16.5652 15.5652Z" stroke="url(#aanavigation__paint1_linear_3428_76294)" stroke-width="3"/><defs><linearGradient id="aanavigation__paint0_linear_3428_76294" x1="4.5" y1="28.5" x2="23.5" y2="9.5" gradientUnits="userSpaceOnUse"><stop offset="0.0677083" stop-opacity="0"/><stop offset="0.65625" stop-color="#B53737"/></linearGradient><linearGradient id="aanavigation__paint1_linear_3428_76294" x1="9.5" y1="22.5" x2="19" y2="13" gradientUnits="userSpaceOnUse"><stop offset="0.03125" stop-opacity="0"/><stop offset="0.682292" stop-color="#B53737"/></linearGradient></defs></svg><svg viewBox="0 0 140 21" fill="none" id="icon-expander-text" xmlns="http://www.w3.org/2000/svg"><g clip-path="url(#abnavigation__clip0_3712_1504)"><path fill-rule="evenodd" clip-rule="evenodd" d="M37.7082 14.4893C38.6035 14.4893 39.101 15.0116 39.101 15.8821C39.101 16.7525 38.5787 17.2748 37.6836 17.2748C36.8131 17.2748 36.3157 16.7525 36.3157 15.8821C36.3157 15.0116 36.8377 14.4893 37.7082 14.4893ZM37.7075 13.1953C35.9419 13.1953 34.8228 14.2399 34.8228 15.8814C34.8228 17.5477 35.9419 18.5674 37.7075 18.5674C39.4734 18.5674 40.5926 17.5228 40.5926 15.8814C40.5926 14.2399 39.4734 13.1953 37.7075 13.1953ZM25.9979 16.2298H24.63L25.1772 14.6381H25.4507L25.9979 16.2298ZM26.5196 13.3442H24.0822L22.3164 18.4179H23.8833L24.2563 17.3733H26.3455L26.6937 18.4179H28.2854L26.5196 13.3442ZM4.48256 16.8019C4.48256 17.1252 4.30847 17.2745 3.86079 17.2745H2.49289V16.3294H3.86079C4.30847 16.3294 4.48256 16.4786 4.48256 16.8019ZM4.38308 14.9366C4.38308 15.2599 4.20898 15.3842 3.78618 15.3842V15.4091H2.49289V14.5138H3.78618C4.18411 14.5138 4.38308 14.6381 4.38308 14.9366ZM4.18348 13.3452H1V18.394H4.084C5.20319 18.394 5.99906 18.0209 5.99906 16.9763C5.99906 16.3794 5.67574 16.0312 5.02909 15.7825C5.65087 15.5836 5.87471 15.1856 5.87471 14.6136C5.87471 13.768 5.22806 13.3452 4.18348 13.3452ZM6.82129 13.3696L9.0348 16.8018H9.05967V18.4184H10.5768V16.8018L12.7903 13.3696H11.124L9.85554 15.3842H9.78093L8.53738 13.3696H6.82129ZM19.4555 15.9815C19.928 15.9815 20.127 15.683 20.127 15.2851C20.127 14.8374 19.9032 14.5887 19.4306 14.5887H18.2368V15.9815H19.4555ZM16.7688 13.3452H19.7284C20.972 13.3452 21.6435 14.0664 21.6435 15.2354C21.6435 16.5535 20.7979 17.1753 19.6289 17.1753H18.2859V18.4188H16.7688V13.3452ZM29.626 13.3452H31.1431V17.1007H33.8292L33.7794 18.4188H29.626V13.3452ZM46.7389 16.2295H48.1068L47.5596 14.6377H47.286L46.7389 16.2295ZM46.1916 13.3452H48.6293L50.3948 18.4188H48.8031L48.4549 17.3743H46.3657L45.9927 18.4188H44.4507L46.1916 13.3452ZM53.256 13.3452H51.7389V18.4188H55.8921L55.9418 17.1007H53.256V13.3452ZM58.0554 14.6629H56.2896L56.3395 13.3696H61.2886L61.3384 14.6629H59.5728V18.4184H58.0554V14.6629ZM65.2417 14.4893C66.1371 14.4893 66.6345 15.0116 66.6345 15.8821C66.6345 16.7525 66.1122 17.2748 65.2169 17.2748C64.3464 17.2748 63.849 16.7525 63.849 15.8821C63.849 15.0116 64.3464 14.4893 65.2417 14.4893ZM65.2411 13.1953C63.4753 13.1953 62.3561 14.2399 62.3561 15.8814C62.3561 17.5477 63.4753 18.5674 65.2411 18.5674C67.0069 18.5674 68.1261 17.5228 68.1261 15.8814C68.1261 14.2399 67.0069 13.1953 65.2411 13.1953ZM72.4312 13.3452H73.9983L76.1869 16.2302H76.2115V13.3452H77.6541V18.4188H76.1369L73.8985 15.4841H73.8739V18.4188H72.4312V13.3452ZM83.8936 13.3452H79.4665H79.4414V18.394H83.9682L84.0179 17.1753H80.9588V16.3794H83.2964V15.2602H80.9588V14.5638H83.9433L83.8936 13.3452ZM87.0031 14.6629H85.2371L85.2871 13.3696H90.2364L90.2861 14.6629H88.5203V18.4184H87.0031V14.6629ZM93.0212 13.3452H91.4045L92.7473 18.4188H94.737L95.6821 15.3597H95.7072L96.6272 18.4188H98.6169L99.9599 13.3452H98.4179L97.5972 16.852H97.5228L96.478 13.3452H94.9857L93.9165 16.852H93.8419L93.0212 13.3452ZM105.234 15.8821C105.234 15.0116 104.736 14.4893 103.841 14.4893C102.946 14.4893 102.448 15.0116 102.448 15.8821C102.448 16.7525 102.946 17.2748 103.816 17.2748C104.736 17.2748 105.234 16.7525 105.234 15.8821ZM100.955 15.8814C100.955 14.2399 102.075 13.1953 103.84 13.1953C105.606 13.1953 106.726 14.2399 106.726 15.8814C106.726 17.5228 105.606 18.5674 103.84 18.5674C102.075 18.5674 100.955 17.5477 100.955 15.8814ZM111.726 15.2348C111.726 15.6328 111.527 15.9063 111.03 15.9063H109.786V14.5882H111.03C111.553 14.5882 111.726 14.8618 111.726 15.2348ZM111.227 13.3447H108.267V18.3935H109.785V17.0505H110.779L111.725 18.3935H113.441L112.247 16.7769C112.919 16.5282 113.242 15.981 113.242 15.1603C113.242 13.9913 112.57 13.3447 111.227 13.3447ZM114.808 13.3452H116.325V15.2105H116.947L118.44 13.3452H120.156L118.216 15.7577L120.255 18.394H118.489L116.947 16.454H116.325V18.394H114.808V13.3452ZM121.274 16.7027V18.0954C122.021 18.369 122.717 18.568 123.587 18.568C125.378 18.568 126 17.7224 126 16.9016C126 15.8322 125.229 15.484 124.035 15.285C123.949 15.2706 123.868 15.2574 123.791 15.245C123.076 15.1285 122.792 15.0822 122.792 14.8125C122.792 14.5886 123.04 14.4394 123.612 14.4394C124.259 14.4394 125.08 14.6632 125.677 15.0114V13.6435C125.055 13.3948 124.358 13.2456 123.712 13.2456C122.07 13.2456 121.25 13.9669 121.25 14.912C121.25 15.9317 122.021 16.2799 123.214 16.4788C124.309 16.6529 124.483 16.7275 124.483 16.9762C124.483 17.225 124.209 17.3493 123.662 17.3493C122.941 17.3493 122.12 17.1255 121.274 16.7027Z" fill="#A4A4A4"/><path fill-rule="evenodd" clip-rule="evenodd" d="M63.9408 7.94659H67.7857V9.5539H61.8817V2.2002H67.6492V3.8075H63.9408V5.04721H67.2079V6.60199H63.9408V7.94659ZM70.8031 5.82998L68.122 9.5539H70.4962L71.997 7.27866L73.5216 9.5539H75.917L73.1894 5.75252L75.749 2.2002H73.5008L72.0548 4.32584L70.5804 2.2002H68.2376L70.8031 5.82998ZM76.3981 9.55405V2.2002H79.7601C80.4322 2.2002 81.0103 2.30889 81.4935 2.52592C81.984 2.74295 82.3617 3.05816 82.6281 3.47118C82.8938 3.87755 83.0273 4.3607 83.0273 4.92099C83.0273 5.47426 82.8938 5.95426 82.6281 6.36027C82.3617 6.76664 81.984 7.08149 81.4935 7.30589C81.0103 7.52292 80.4322 7.63126 79.7601 7.63126H78.4784V9.55405H76.3981ZM78.4784 2.91826V2.8832L78.4445 2.91826H78.4784ZM78.4798 3.83898V5.99247H79.6337C80.0682 5.99247 80.3906 5.89816 80.6003 5.70883C80.8178 5.51984 80.9263 5.25723 80.9263 4.92099C80.9263 4.57773 80.8178 4.31161 80.6003 4.12263C80.3906 3.93365 80.0682 3.83898 79.6337 3.83898H78.4798ZM82.7896 9.5539L86.036 2.2002H88.0839L91.3411 9.5539H89.1768L88.6033 8.1251H85.485L84.9115 9.5539H82.7896ZM87.0442 4.2407L87.9877 6.59133H86.1007L87.0442 4.2407ZM91.9306 9.5539V2.2002H93.6432L96.8888 6.11865V2.2002H98.9274V9.5539H97.2148L93.9685 5.63458V9.5539H91.9306ZM100.394 9.5539V2.2002H103.871C104.684 2.2002 105.399 2.35077 106.015 2.65192C106.631 2.95307 107.11 3.37679 107.454 3.92306C107.804 4.46934 107.979 5.12067 107.979 5.87705C107.979 6.62643 107.804 7.27775 107.454 7.83103C107.11 8.3773 106.631 8.80101 106.015 9.10217C105.399 9.40332 104.684 9.5539 103.871 9.5539H100.394ZM102.475 7.89406H103.787C104.207 7.89406 104.572 7.81702 104.88 7.66294C105.195 7.50186 105.44 7.27074 105.615 6.9696C105.791 6.66144 105.878 6.29726 105.878 5.87705C105.878 5.44983 105.791 5.08564 105.615 4.7845C105.44 4.48335 105.195 4.25573 104.88 4.10165C104.572 3.94057 104.207 3.86003 103.787 3.86003H102.475V7.89406ZM114.978 7.94659H111.132V6.60199H114.4V5.04721H111.132V3.8075H114.841V2.2002H109.074V9.5539H114.978V7.94659ZM116.132 9.55405V2.2002H119.494C120.166 2.2002 120.744 2.30889 121.227 2.52592C121.717 2.74295 122.095 3.05816 122.361 3.47118C122.627 3.87755 122.761 4.3607 122.761 4.92099C122.761 5.47426 122.627 5.95426 122.361 6.36027C122.112 6.73368 121.765 7.0275 121.321 7.24137L122.908 9.5537H120.68L119.347 7.60006H118.212V9.55405H116.132ZM119.367 5.99247H118.214V3.83898H119.367C119.802 3.83898 120.124 3.93365 120.334 4.12263C120.551 4.31161 120.66 4.57773 120.66 4.92099C120.66 5.25723 120.551 5.51984 120.334 5.70883C120.124 5.89816 119.802 5.99247 119.367 5.99247ZM129.384 9.38068L126.377 2.34083H128.529L130.437 6.93005L132.391 2.34083H134.362L131.345 9.38068H129.384ZM134.519 8.13377V9.38084H140V7.8019H137.283L138.612 6.57495C138.947 6.26655 139.199 5.9883 139.367 5.74023C139.541 5.48546 139.658 5.24744 139.719 5.02619C139.779 4.79823 139.809 4.57028 139.809 4.34232C139.809 3.90652 139.692 3.52771 139.457 3.20589C139.229 2.88407 138.911 2.636 138.501 2.46168C138.093 2.28736 137.617 2.2002 137.074 2.2002C136.383 2.2002 135.79 2.33429 135.294 2.60247C134.798 2.87066 134.418 3.226 134.157 3.66851L135.636 4.49317C135.776 4.26521 135.957 4.09425 136.178 3.98027C136.4 3.86629 136.638 3.8093 136.892 3.8093C137.195 3.8093 137.419 3.873 137.566 4.00038C137.721 4.12777 137.798 4.30545 137.798 4.5334C137.798 4.62726 137.781 4.73119 137.747 4.84517C137.721 4.95244 137.661 5.07312 137.566 5.20721C137.479 5.34131 137.342 5.49551 137.154 5.66983L134.519 8.13377Z" fill="#A4A4A4"/><path fill-rule="evenodd" clip-rule="evenodd" d="M14.1961 7.95614C12.9943 7.95614 12.0495 7.16282 12.0495 5.81488C12.0495 4.45691 12.9943 3.67361 14.1961 3.67361C15.4082 3.67361 16.3635 4.45691 16.3635 5.81488C16.3635 7.16282 15.4082 7.95614 14.1961 7.95614ZM14.1961 9.63033C16.7531 9.63033 18.4372 8.09684 18.4372 5.81516C18.4372 3.54352 16.7531 2 14.1961 2C11.659 2 9.97581 3.53348 9.97581 5.81516C9.97581 8.09684 11.659 9.63033 14.1961 9.63033ZM4.54724 9.59653C1.65001 9.59653 0 8.04298 0 5.8265C0 3.7093 1.74952 2.03641 4.56904 2.03641C5.61819 2.03641 6.45599 2.241 7.2227 2.56495V4.33814C6.48252 3.946 5.72433 3.61101 4.6676 3.61101C3.00622 3.61101 1.91348 4.47956 1.91348 5.81547C1.91348 7.18447 2.96263 8.02092 4.6458 8.02092C5.69779 8.02092 6.48252 7.68794 7.2227 7.29078V9.04993C6.46452 9.37488 5.59544 9.59653 4.54724 9.59653ZM24.8364 5.55574H23.0272V3.65417H24.9246C25.9965 3.65417 26.4334 3.99115 26.4334 4.59994C26.4334 5.24081 25.897 5.55574 24.8364 5.55574ZM28.3573 4.56742C28.3573 3.07806 27.2968 2.19849 25.2961 2.19849H21.1251V9.43366H23.0272V6.95642H24.4317L26.5423 9.43366H28.7183L26.4438 6.816C27.5811 6.51111 28.3573 5.74085 28.3573 4.56742ZM33.5167 3.75204H30.6441V2.19849H38.2914V3.75204H35.4188V9.43366H33.5167V3.75204ZM40.9878 9.43366H47.6077V7.95534H42.8576V6.44592H46.3832V5.09898H42.8576V3.67581H47.6077V2.19849H40.9878V9.43366ZM58.0995 2.19849L55.0307 5.76192L58.1877 9.43366H55.8591L53.83 7.03665L51.8084 9.43366H49.5567L52.7135 5.78298L49.6429 2.19849H51.9715L53.9134 4.62258L55.8477 2.19849H58.0995Z" fill="white"/></g><defs><clipPath id="abnavigation__clip0_3712_1504"><rect width="140" height="21" fill="white"/></clipPath></defs></svg><svg viewBox="0 0 32 33" fill="none" id="icon-menu-application-hub-dark" xmlns="http://www.w3.org/2000/svg"><path fill-rule="evenodd" clip-rule="evenodd" d="M8 19.5C8 18.3954 8.89543 17.5 10 17.5H16V19.5H10V23.5H16V25.5H10C8.89543 25.5 8 24.6046 8 23.5V19.5Z" fill="url(#acnavigation__paint0_linear_437_2520)"/><path fill-rule="evenodd" clip-rule="evenodd" d="M10 9.5V13.5H14V9.5H10ZM9 7.5C8.44772 7.5 8 7.94772 8 8.5V14.5C8 15.0523 8.44772 15.5 9 15.5H15C15.5523 15.5 16 15.0523 16 14.5V8.5C16 7.94772 15.5523 7.5 15 7.5H9Z" fill="url(#acnavigation__paint1_linear_437_2520)"/><path fill-rule="evenodd" clip-rule="evenodd" d="M26 13.5C26 14.6046 25.1046 15.5 24 15.5L18 15.5L18 13.5L24 13.5L24 9.5L18 9.5L18 7.5L24 7.5C25.1046 7.5 26 8.39543 26 9.5L26 13.5Z" fill="url(#acnavigation__paint2_linear_437_2520)"/><path d="M23 20.5L23 18.3633C23 18.0871 22.7761 17.8633 22.5 17.8633L21.5 17.8633C21.2239 17.8633 21 18.0871 21 18.3633L21 20.5L18.8643 20.5C18.5881 20.5 18.3643 20.7239 18.3643 21V22C18.3643 22.2761 18.5881 22.5 18.8643 22.5L21 22.5V24.636C21 24.9122 21.2239 25.136 21.5 25.136H22.5C22.7761 25.136 23 24.9122 23 24.636V22.5H25.137C25.4131 22.5 25.637 22.2761 25.637 22V21C25.637 20.7239 25.4131 20.5 25.137 20.5L23 20.5Z" fill="url(#acnavigation__paint3_linear_437_2520)"/><defs><linearGradient id="acnavigation__paint0_linear_437_2520" x1="10" y1="22" x2="16" y2="22" gradientUnits="userSpaceOnUse"><stop stop-color="#8D58FF"/><stop offset="1" stop-color="#8D58FF" stop-opacity="0"/></linearGradient><linearGradient id="acnavigation__paint1_linear_437_2520" x1="12" y1="10" x2="12" y2="18" gradientUnits="userSpaceOnUse"><stop stop-color="#8D58FF"/><stop offset="1" stop-color="#8D58FF" stop-opacity="0"/></linearGradient><linearGradient id="acnavigation__paint2_linear_437_2520" x1="24" y1="11" x2="18" y2="11" gradientUnits="userSpaceOnUse"><stop stop-color="#8D58FF"/><stop offset="1" stop-color="#8D58FF" stop-opacity="0"/></linearGradient><linearGradient id="acnavigation__paint3_linear_437_2520" x1="22" y1="20.1875" x2="22.0137" y2="30" gradientUnits="userSpaceOnUse"><stop stop-color="#8D57FF"/><stop offset="1" stop-opacity="0"/></linearGradient></defs></svg><svg viewBox="0 0 32 33" fill="none" id="icon-menu-application-hub-light" xmlns="http://www.w3.org/2000/svg"><path fill-rule="evenodd" clip-rule="evenodd" d="M8 19.5C8 18.3954 8.89543 17.5 10 17.5H16V19.5H10V23.5H16V25.5H10C8.89543 25.5 8 24.6046 8 23.5V19.5Z" fill="url(#adnavigation__paint0_linear_437_2520)"/><path fill-rule="evenodd" clip-rule="evenodd" d="M10 9.5V13.5H14V9.5H10ZM9 7.5C8.44772 7.5 8 7.94772 8 8.5V14.5C8 15.0523 8.44772 15.5 9 15.5H15C15.5523 15.5 16 15.0523 16 14.5V8.5C16 7.94772 15.5523 7.5 15 7.5H9Z" fill="url(#adnavigation__paint1_linear_437_2520)"/><path fill-rule="evenodd" clip-rule="evenodd" d="M26 13.5C26 14.6046 25.1046 15.5 24 15.5L18 15.5L18 13.5L24 13.5L24 9.5L18 9.5L18 7.5L24 7.5C25.1046 7.5 26 8.39543 26 9.5L26 13.5Z" fill="url(#adnavigation__paint2_linear_437_2520)"/><path d="M23 20.5L23 18.3633C23 18.0871 22.7761 17.8633 22.5 17.8633L21.5 17.8633C21.2239 17.8633 21 18.0871 21 18.3633L21 20.5L18.8643 20.5C18.5881 20.5 18.3643 20.7239 18.3643 21V22C18.3643 22.2761 18.5881 22.5 18.8643 22.5L21 22.5V24.636C21 24.9122 21.2239 25.136 21.5 25.136H22.5C22.7761 25.136 23 24.9122 23 24.636V22.5H25.137C25.4131 22.5 25.637 22.2761 25.637 22V21C25.637 20.7239 25.4131 20.5 25.137 20.5L23 20.5Z" fill="url(#adnavigation__paint3_linear_437_2520)"/><defs><linearGradient id="adnavigation__paint0_linear_437_2520" x1="10" y1="22" x2="16" y2="22" gradientUnits="userSpaceOnUse"><stop stop-color="#8D58FF"/><stop offset="1" stop-color="#FFF" stop-opacity="0"/></linearGradient><linearGradient id="adnavigation__paint1_linear_437_2520" x1="12" y1="10" x2="12" y2="18" gradientUnits="userSpaceOnUse"><stop stop-color="#8D58FF"/><stop offset="1" stop-color="#FFF" stop-opacity="0"/></linearGradient><linearGradient id="adnavigation__paint2_linear_437_2520" x1="24" y1="11" x2="18" y2="11" gradientUnits="userSpaceOnUse"><stop stop-color="#8D58FF"/><stop offset="1" stop-color="#FFF" stop-opacity="0"/></linearGradient><linearGradient id="adnavigation__paint3_linear_437_2520" x1="22" y1="20.1875" x2="22.0137" y2="30" gradientUnits="userSpaceOnUse"><stop stop-color="#8D57FF"/><stop offset="1" stop-color="#FFF" stop-opacity="0"/></linearGradient></defs></svg><svg fill="none" viewBox="0 0 44 44" id="icon-menu-assets-dark" xmlns="http://www.w3.org/2000/svg"><path fill-rule="evenodd" clip-rule="evenodd" d="M34.441 17.54V31.5a2 2 0 0 1-2 2H29.03a1.5 1.5 0 0 1 0-3h2.411V19.604h-2.47a2 2 0 0 1-2-2V14.5h-7.059v2.486a1.5 1.5 0 0 1-3 0V13.5a2 2 0 0 1 2-2h10.239l5.29 6.04Z" fill="url(#aenavigation__a)"/><path fill-rule="evenodd" clip-rule="evenodd" d="M26.25 22.404a1.5 1.5 0 0 1-1.5 1.5H11a1.5 1.5 0 0 1 0-3h13.75a1.5 1.5 0 0 1 1.5 1.5Z" fill="url(#aenavigation__b)"/><path fill-rule="evenodd" clip-rule="evenodd" d="M26.25 31.404a1.5 1.5 0 0 1-1.5 1.5H11a1.5 1.5 0 0 1 0-3h13.75a1.5 1.5 0 0 1 1.5 1.5Z" fill="url(#aenavigation__c)"/><path fill-rule="evenodd" clip-rule="evenodd" d="M29 26.904a1.5 1.5 0 0 1-1.5 1.5H13.75a1.5 1.5 0 0 1 0-3H27.5a1.5 1.5 0 0 1 1.5 1.5Z" fill="url(#aenavigation__d)"/><defs><linearGradient id="aenavigation__a" x1="31.191" y1="15.31" x2="18.897" y2="33.192" gradientUnits="userSpaceOnUse"><stop stop-color="#FF60F9"/><stop offset="1"/></linearGradient><linearGradient id="aenavigation__b" x1="24.75" y1="22.404" x2="11" y2="22.404" gradientUnits="userSpaceOnUse"><stop offset=".172" stop-color="#FF60F9"/><stop offset="1" stop-opacity="0"/></linearGradient><linearGradient id="aenavigation__c" x1="24.75" y1="31.404" x2="11" y2="31.404" gradientUnits="userSpaceOnUse"><stop offset=".172" stop-color="#FF60F9"/><stop offset="1" stop-opacity="0"/></linearGradient><linearGradient id="aenavigation__d" x1="27.5" y1="26.904" x2="13.75" y2="26.904" gradientUnits="userSpaceOnUse"><stop stop-opacity="0"/><stop offset=".87" stop-color="#EB59E6"/></linearGradient></defs></svg><svg fill="none" viewBox="0 0 44 44" id="icon-menu-assets-light" xmlns="http://www.w3.org/2000/svg"><path fill-rule="evenodd" clip-rule="evenodd" d="M34.441 17.54V31.5a2 2 0 0 1-2 2H29.03a1.5 1.5 0 0 1 0-3h2.411V19.604h-2.47a2 2 0 0 1-2-2V14.5h-7.059v2.486a1.5 1.5 0 0 1-3 0V13.5a2 2 0 0 1 2-2h10.239l5.29 6.04Z" fill="url(#afnavigation__a)"/><path fill-rule="evenodd" clip-rule="evenodd" d="M26.25 22.404a1.5 1.5 0 0 1-1.5 1.5H11a1.5 1.5 0 0 1 0-3h13.75a1.5 1.5 0 0 1 1.5 1.5Z" fill="url(#afnavigation__b)"/><path fill-rule="evenodd" clip-rule="evenodd" d="M26.25 31.404a1.5 1.5 0 0 1-1.5 1.5H11a1.5 1.5 0 0 1 0-3h13.75a1.5 1.5 0 0 1 1.5 1.5Z" fill="url(#afnavigation__c)"/><path fill-rule="evenodd" clip-rule="evenodd" d="M29 26.904a1.5 1.5 0 0 1-1.5 1.5H13.75a1.5 1.5 0 0 1 0-3H27.5a1.5 1.5 0 0 1 1.5 1.5Z" fill="url(#afnavigation__d)"/><defs><linearGradient id="afnavigation__a" x1="31.191" y1="15.31" x2="18.897" y2="33.192" gradientUnits="userSpaceOnUse"><stop stop-color="#FF60F9"/><stop offset="1" stop-color="#fff"/></linearGradient><linearGradient id="afnavigation__b" x1="24.75" y1="22.404" x2="11" y2="22.404" gradientUnits="userSpaceOnUse"><stop offset=".172" stop-color="#FF60F9"/><stop offset="1" stop-color="#fff" stop-opacity="0"/></linearGradient><linearGradient id="afnavigation__c" x1="24.75" y1="31.404" x2="11" y2="31.404" gradientUnits="userSpaceOnUse"><stop offset=".172" stop-color="#FF60F9"/><stop offset="1" stop-color="#fff" stop-opacity="0"/></linearGradient><linearGradient id="afnavigation__d" x1="27.5" y1="26.904" x2="13.75" y2="26.904" gradientUnits="userSpaceOnUse"><stop stop-color="#fff" stop-opacity="0"/><stop offset=".87" stop-color="#EB59E6"/></linearGradient></defs></svg><svg fill="none" viewBox="0 0 44 44" id="icon-menu-automation-dark" xmlns="http://www.w3.org/2000/svg"><path d="M23.185 10.336a1 1 0 0 1 .761-.352h5.569a.3.3 0 0 1 .223.5l-6.604 7.324a.3.3 0 0 0 .223.501h5.6a.3.3 0 0 1 .219.505L13.758 35.338c-.24.257-.65-.037-.484-.346l6.734-12.558a.3.3 0 0 0-.264-.442h-5.826a.3.3 0 0 1-.228-.494l9.495-11.162Z" fill="url(#agnavigation__a)"/><defs><linearGradient id="agnavigation__a" x1="21.92" y1="11.496" x2="19.67" y2="40.018" gradientUnits="userSpaceOnUse"><stop offset=".12" stop-color="#FF7A00"/><stop offset=".992"/></linearGradient></defs></svg><svg fill="none" viewBox="0 0 44 44" id="icon-menu-automation-light" xmlns="http://www.w3.org/2000/svg"><path d="M24.147 10.719a1 1 0 0 1 .762-.352h5.568a.3.3 0 0 1 .223.5l-6.604 7.324a.3.3 0 0 0 .223.5h5.6a.3.3 0 0 1 .219.506L14.72 35.72c-.24.257-.65-.037-.484-.347l6.735-12.558a.3.3 0 0 0-.265-.441h-5.825a.3.3 0 0 1-.229-.495l9.495-11.161Z" fill="url(#ahnavigation__a)"/><defs><linearGradient id="ahnavigation__a" x1="22.883" y1="11.879" x2="20.632" y2="40.401" gradientUnits="userSpaceOnUse"><stop offset=".12" stop-color="#FF7A00"/><stop offset=".901" stop-color="#fff"/></linearGradient></defs></svg><svg fill="none" viewBox="0 0 44 44" id="icon-menu-dashboards-and-reports-dark" xmlns="http://www.w3.org/2000/svg"><path fill-rule="evenodd" clip-rule="evenodd" d="M21.161 17.813c-5.92 0-10.911 5.115-10.911 11.67a2 2 0 1 1-4 0c0-8.545 6.57-15.67 14.911-15.67 8.342 0 14.911 7.125 14.911 15.67a2 2 0 1 1-4 0c0-6.555-4.99-11.67-10.91-11.67Z" fill="url(#ainavigation__a)"/><path fill-rule="evenodd" clip-rule="evenodd" d="M21.313 24.188c-2.445 0-4.688 2.253-4.688 5.375a1.5 1.5 0 0 1-3 0c0-4.473 3.297-8.375 7.688-8.375 4.39 0 7.687 3.902 7.687 8.375a1.5 1.5 0 0 1-3 0c0-3.122-2.243-5.375-4.688-5.375Z" fill="url(#ainavigation__b)"/><path d="M30.938 11 20.624 28.875l2.063 2.75 16.5-13.75L30.938 11Z" fill="url(#ainavigation__c)"/><defs><linearGradient id="ainavigation__a" x1="21.161" y1="15.813" x2="6.188" y2="30.938" gradientUnits="userSpaceOnUse"><stop stop-color="#2C83E8"/><stop offset="1" stop-color="#2D83E8" stop-opacity="0"/></linearGradient><linearGradient id="ainavigation__b" x1="13.75" y1="22.688" x2="30.25" y2="29.563" gradientUnits="userSpaceOnUse"><stop stop-color="#2D83E8"/><stop offset="1"/></linearGradient><linearGradient id="ainavigation__c" x1="25.438" y1="19.25" x2="30.25" y2="25.438" gradientUnits="userSpaceOnUse"><stop/><stop offset="1" stop-opacity="0"/></linearGradient></defs></svg><svg fill="none" viewBox="0 0 44 44" id="icon-menu-dashboards-and-reports-light" xmlns="http://www.w3.org/2000/svg"><path fill-rule="evenodd" clip-rule="evenodd" d="M21.161 17.813c-5.92 0-10.911 5.115-10.911 11.67a2 2 0 1 1-4 0c0-8.545 6.57-15.67 14.911-15.67 8.342 0 14.911 7.125 14.911 15.67a2 2 0 1 1-4 0c0-6.555-4.99-11.67-10.91-11.67Z" fill="url(#ajnavigation__a)"/><path fill-rule="evenodd" clip-rule="evenodd" d="M21.313 24.188c-2.445 0-4.688 2.253-4.688 5.375a1.5 1.5 0 0 1-3 0c0-4.473 3.297-8.375 7.688-8.375 4.39 0 7.687 3.902 7.687 8.375a1.5 1.5 0 0 1-3 0c0-3.122-2.243-5.375-4.688-5.375Z" fill="url(#ajnavigation__b)"/><path d="M30.938 11 20.624 28.875l2.063 2.75 16.5-13.75L30.938 11Z" fill="url(#ajnavigation__c)"/><defs><linearGradient id="ajnavigation__a" x1="21.161" y1="15.813" x2="6.188" y2="30.938" gradientUnits="userSpaceOnUse"><stop stop-color="#2C83E8"/><stop offset="1" stop-color="#2D83E8" stop-opacity="0"/></linearGradient><linearGradient id="ajnavigation__b" x1="13.75" y1="22.688" x2="27" y2="30" gradientUnits="userSpaceOnUse"><stop stop-color="#2D83E8"/><stop offset="1" stop-color="#fff"/></linearGradient><linearGradient id="ajnavigation__c" x1="25.438" y1="19.25" x2="30.25" y2="25.438" gradientUnits="userSpaceOnUse"><stop stop-color="#fff"/><stop offset="1" stop-color="#fff" stop-opacity="0"/></linearGradient></defs></svg><svg fill="none" viewBox="0 0 44 44" id="icon-menu-detection-and-threat-intel-dark" xmlns="http://www.w3.org/2000/svg"><path fill-rule="evenodd" clip-rule="evenodd" d="M20.252 28.302c-3.77-.773-7.024-3.274-8.791-5.163a2 2 0 1 0-2.922 2.732c2.1 2.244 6.046 5.352 10.91 6.35 5.058 1.037 10.817-.278 16.07-6.415a2 2 0 1 0-3.038-2.602c-4.348 5.08-8.655 5.83-12.23 5.098Z" fill="url(#aknavigation__a)"/><path fill-rule="evenodd" clip-rule="evenodd" d="M19.84 17.256c-3.571.807-6.53 3.361-8.38 5.339a2 2 0 0 1-2.92-2.733c2.016-2.155 5.658-5.432 10.42-6.507 4.977-1.125 10.708.253 16.507 6.515a2 2 0 1 1-2.934 2.717c-5.001-5.4-9.337-6.088-12.692-5.33Z" fill="url(#aknavigation__b)"/><path fill-rule="evenodd" clip-rule="evenodd" d="M22 19.63a2.667 2.667 0 1 0 0 5.334 2.667 2.667 0 0 0 0-5.333Zm5.333 2.667a5.333 5.333 0 1 1-10.666 0 5.333 5.333 0 0 1 10.666 0Z" fill="url(#aknavigation__c)"/><defs><linearGradient id="aknavigation__a" x1="3.333" y1="22.178" x2="38" y2="21.83" gradientUnits="userSpaceOnUse"><stop offset=".385" stop-color="#DC4545"/><stop offset="1" stop-opacity="0"/></linearGradient><linearGradient id="aknavigation__b" x1="3.333" y1="23.63" x2="38" y2="23.967" gradientUnits="userSpaceOnUse"><stop stop-opacity="0"/><stop offset=".67" stop-color="#DC4545"/></linearGradient><linearGradient id="aknavigation__c" x1="18.445" y1="21.193" x2="20.498" y2="26.589" gradientUnits="userSpaceOnUse"><stop stop-color="#DC4545" stop-opacity="0"/><stop offset=".802" stop-color="#DC4545"/></linearGradient></defs></svg><svg fill="none" viewBox="0 0 44 44" id="icon-menu-detection-and-threat-intel-light" xmlns="http://www.w3.org/2000/svg"><path fill-rule="evenodd" clip-rule="evenodd" d="M20.252 28.302c-3.77-.774-7.024-3.274-8.791-5.163a2 2 0 1 0-2.922 2.732c2.1 2.244 6.046 5.352 10.91 6.35 5.058 1.037 10.817-.278 16.07-6.416a2 2 0 1 0-3.038-2.6c-4.348 5.078-8.655 5.83-12.23 5.097Z" fill="url(#alnavigation__a)"/><path fill-rule="evenodd" clip-rule="evenodd" d="M19.84 17.256c-3.571.807-6.53 3.361-8.38 5.339a2 2 0 0 1-2.92-2.733c2.016-2.155 5.658-5.432 10.42-6.507 4.977-1.125 10.708.253 16.507 6.515a2 2 0 1 1-2.934 2.717c-5.001-5.4-9.337-6.088-12.692-5.33Z" fill="url(#alnavigation__b)"/><path fill-rule="evenodd" clip-rule="evenodd" d="M22 19.63a2.667 2.667 0 1 0 0 5.334 2.667 2.667 0 0 0 0-5.333Zm5.333 2.667a5.333 5.333 0 1 1-10.666 0 5.333 5.333 0 0 1 10.666 0Z" fill="url(#alnavigation__c)"/><defs><linearGradient id="alnavigation__a" x1="3.333" y1="22.177" x2="38" y2="21.83" gradientUnits="userSpaceOnUse"><stop offset=".385" stop-color="#DC4545"/><stop offset="1" stop-color="#fff" stop-opacity="0"/></linearGradient><linearGradient id="alnavigation__b" x1="3.333" y1="23.63" x2="38" y2="23.967" gradientUnits="userSpaceOnUse"><stop stop-color="#fff" stop-opacity="0"/><stop offset=".67" stop-color="#DC4545"/></linearGradient><linearGradient id="alnavigation__c" x1="18.445" y1="21.193" x2="20.498" y2="26.589" gradientUnits="userSpaceOnUse"><stop stop-color="#DC4545" stop-opacity="0"/><stop offset=".802" stop-color="#DC4545"/></linearGradient></defs></svg><svg viewBox="0 0 16 10" fill="none" id="icon-menu-edit-favorites" xmlns="http://www.w3.org/2000/svg"><path d="M7.58063 5.49757L9.65479 7.57202L13.9923 3.23514L11.9181 1.16069L7.58063 5.49757Z" fill="currentColor"/><path d="M14.7565 0.982947L14.0915 0.31788C13.7243 -0.0493195 13.1288 -0.0493195 12.7616 0.31788L12.2949 0.784014L14.3691 2.85815L14.8355 2.39175C15.2029 2.02481 15.124 1.35015 14.7565 0.982947Z" fill="currentColor"/><path d="M7.2666 5.92773V8H9.19887L7.2666 5.92773Z" fill="currentColor"/><path d="M1.31084 9.11768H7.02751L7.82959 10H0.82959L1.31084 9.11768Z" fill="currentColor"/></svg><svg fill="none" viewBox="0 0 44 44" id="icon-menu-endpoints-dark" xmlns="http://www.w3.org/2000/svg"><path fill-rule="evenodd" clip-rule="evenodd" d="M27.76 31.625c0 .69-.559 1.25-1.25 1.25H12.76a1.25 1.25 0 0 1 0-2.5h13.75c.691 0 1.25.56 1.25 1.25Z" fill="url(#annavigation__a)"/><path fill-rule="evenodd" clip-rule="evenodd" d="M10.5 14a1.5 1.5 0 0 1 1.5-1.5h20a1.5 1.5 0 0 1 1.5 1.5v13.636a1.5 1.5 0 0 1-1.5 1.5H12a1.5 1.5 0 0 1-1.5-1.5V14Zm3 1.5v10.636h17V15.5h-17Z" fill="url(#annavigation__b)"/><defs><linearGradient id="annavigation__a" x1="26.511" y1="31.625" x2="12.761" y2="31.625" gradientUnits="userSpaceOnUse"><stop offset=".172" stop-color="#2AD49F"/><stop offset="1" stop-opacity="0"/></linearGradient><linearGradient id="annavigation__b" x1="9.521" y1="11.521" x2="33.694" y2="31.355" gradientUnits="userSpaceOnUse"><stop offset=".172" stop-color="#2AD49F"/><stop offset="1" stop-opacity="0"/></linearGradient></defs></svg><svg fill="none" viewBox="0 0 44 44" id="icon-menu-endpoints-light" xmlns="http://www.w3.org/2000/svg"><path fill-rule="evenodd" clip-rule="evenodd" d="M27.76 32.625c0 .69-.559 1.25-1.25 1.25H12.76a1.25 1.25 0 0 1 0-2.5h13.75c.691 0 1.25.56 1.25 1.25Z" fill="url(#aonavigation__a)"/><path fill-rule="evenodd" clip-rule="evenodd" d="M10.5 15a1.5 1.5 0 0 1 1.5-1.5h20a1.5 1.5 0 0 1 1.5 1.5v13.636a1.5 1.5 0 0 1-1.5 1.5H12a1.5 1.5 0 0 1-1.5-1.5V15Zm3 1.5v10.636h17V16.5h-17Z" fill="url(#aonavigation__b)"/><defs><linearGradient id="aonavigation__a" x1="26.511" y1="32.625" x2="12.761" y2="32.625" gradientUnits="userSpaceOnUse"><stop offset=".172" stop-color="#2AD49F"/><stop offset="1" stop-color="#fff" stop-opacity="0"/></linearGradient><linearGradient id="aonavigation__b" x1="9.521" y1="12.521" x2="33.694" y2="32.355" gradientUnits="userSpaceOnUse"><stop offset=".172" stop-color="#2AD49F"/><stop offset="1" stop-color="#fff" stop-opacity="0"/></linearGradient></defs></svg><svg viewBox="0 0 11 11" fill="none" id="icon-menu-favorite" xmlns="http://www.w3.org/2000/svg"><g clip-path="url(#atnavigation__clip0_785_16576)"><path d="M5.98219 0.299862L7.26452 2.89918C7.30225 2.97875 7.35894 3.04785 7.42961 3.1004C7.50029 3.15294 7.58279 3.18733 7.66986 3.20055L10.5329 3.61644C10.6325 3.63036 10.7262 3.67193 10.8034 3.73643C10.8806 3.80094 10.9381 3.88579 10.9695 3.98136C11.0009 4.07693 11.0049 4.17938 10.981 4.27709C10.957 4.37479 10.9062 4.46384 10.8342 4.53411L8.7578 6.55781C8.69638 6.6193 8.65062 6.69465 8.6244 6.77752C8.59818 6.86038 8.59225 6.94834 8.60712 7.03397L9.09835 9.89699C9.11521 9.99588 9.10408 10.0975 9.06621 10.1904C9.02834 10.2833 8.96525 10.3638 8.88406 10.4227C8.80287 10.4816 8.70682 10.5167 8.60676 10.5239C8.5067 10.5311 8.40661 10.5102 8.3178 10.4636L5.75616 9.11493C5.67909 9.07416 5.59321 9.05285 5.50602 9.05285C5.41882 9.05285 5.33296 9.07416 5.25588 9.11493L2.69424 10.4636C2.60543 10.5102 2.50535 10.5311 2.40529 10.5239C2.30522 10.5167 2.20917 10.4816 2.12798 10.4227C2.0468 10.3638 1.9837 10.2833 1.94584 10.1904C1.90797 10.0975 1.89684 9.99588 1.91369 9.89699L2.40342 7.03397C2.4188 6.94833 2.41312 6.86024 2.38687 6.77728C2.36062 6.69433 2.31458 6.61901 2.25273 6.55781L0.17629 4.53411C0.104318 4.46384 0.0534903 4.37479 0.0295784 4.27709C0.00566639 4.17938 0.00963448 4.07693 0.0410195 3.98136C0.0724046 3.88579 0.129954 3.80094 0.207137 3.73643C0.28432 3.67193 0.378039 3.63036 0.47766 3.61644L3.34067 3.20055C3.42752 3.18723 3.50977 3.15278 3.58019 3.10023C3.6506 3.04768 3.70702 2.97864 3.74451 2.89918L5.02835 0.299862C5.07383 0.212695 5.14234 0.139662 5.22643 0.0886972C5.31051 0.037732 5.40695 0.0107841 5.50527 0.0107841C5.60359 0.0107841 5.70003 0.037732 5.78411 0.0886972C5.86819 0.139662 5.9367 0.212695 5.98219 0.299862Z" fill="white"/></g><defs><clipPath id="atnavigation__clip0_785_16576"><rect width="11" height="10.5148" fill="white"/></clipPath></defs></svg><svg viewBox="0 0 8 8" fill="none" id="icon-menu-favorite-cancel" xmlns="http://www.w3.org/2000/svg"><path fill-rule="evenodd" clip-rule="evenodd" d="M4.125 3.25L1.5 0.625L0.625 1.5L3.25 4.125L0.625 6.75L1.5 7.625L4.125 5L6.75 7.625L7.625 6.75L5 4.125L7.625 1.5L6.75 0.625L4.125 3.25Z" fill="#eaebeb"/></svg><svg viewBox="0 0 12 13" fill="none" id="icon-menu-favorite-drag" xmlns="http://www.w3.org/2000/svg"><path d="M5.63271 0.397588C5.83068 0.183289 6.16931 0.183289 6.36727 0.397588L8.6888 2.91072C8.98463 3.23097 8.75749 3.75 8.32153 3.75H3.67845C3.24249 3.75 3.01535 3.23096 3.31118 2.91072L5.63271 0.397588Z" fill="#D1D1D1"/><path d="M6.36729 12.3524C6.16932 12.5667 5.83069 12.5667 5.63273 12.3524L3.3112 9.83928C3.01537 9.51903 3.24251 9 3.67847 9H8.32155C8.75751 9 8.98465 9.51904 8.68882 9.83928L6.36729 12.3524Z" fill="#D1D1D1"/><line y1="6.5" x2="12" y2="6.5" stroke="#B7B7B7"/></svg><svg viewBox="0 0 8 9" fill="none" id="icon-menu-favorite-edit-cancel" xmlns="http://www.w3.org/2000/svg"><path d="M0.937401 1.4058L7.14223 7.84927M7.14217 1.4058L0.778268 7.84927" stroke="white" stroke-width="1.5"/></svg><svg viewBox="0 0 10 11" fill="none" id="icon-menu-favorite-edit-save" xmlns="http://www.w3.org/2000/svg"><path d="M9.24556 3.65298L3.5887 9.30983L0.590576 6.31171" stroke="black" stroke-width="1.5"/></svg><svg viewBox="0 0 32 32" fill="none" id="icon-menu-favorites" xmlns="http://www.w3.org/2000/svg"><style type="text/css">#avnavigation__menu-favorite-1{stroke:url(#avnavigation__paint0_linear_2507_356)}#avnavigation__menu-favorite-2{stroke:url(#avnavigation__paint1_linear_2507_356)}</style><path d="M14.6053 14.7417L15.4997 13.2651L16.3941 14.7417C16.5055 14.9256 16.6863 15.0569 16.8956 15.106L18.5763 15.5004L17.4484 16.8073C17.3079 16.9701 17.2389 17.1826 17.2568 17.3969L17.4011 19.1172L15.8096 18.4483C15.6114 18.365 15.388 18.365 15.1897 18.4483L13.5982 19.1172L13.7425 17.3969C13.7605 17.1826 13.6915 16.9701 13.551 16.8073L12.4231 15.5004L14.1038 15.106C14.3131 15.0569 14.4938 14.9256 14.6053 14.7417Z" id="avnavigation__menu-favorite-1" stroke-miterlimit="10"/><path d="M12.9521 12.1363L15.5 7.9301L18.0479 12.1363C18.2289 12.4351 18.5226 12.6485 18.8628 12.7283L23.6505 13.8518L20.4375 17.5747C20.2092 17.8392 20.097 18.1845 20.1262 18.5327L20.5373 23.4332L16.0037 21.5279C15.6815 21.3926 15.3185 21.3926 14.9963 21.5279L10.4627 23.4332L10.8738 18.5327C10.903 18.1845 10.7908 17.8392 10.5625 17.5747L7.34954 13.8518L12.1372 12.7283C12.4774 12.6485 12.7711 12.4351 12.9521 12.1363Z" id="avnavigation__menu-favorite-2" stroke-width="2" stroke-miterlimit="10"/><defs><linearGradient id="avnavigation__paint0_linear_2507_356" x1="12.3497" y1="22.8" x2="17.3996" y2="14.6002" gradientUnits="userSpaceOnUse"><stop offset="0.244792" stop-color="#FFE501"/><stop offset="1"/></linearGradient><linearGradient id="avnavigation__paint1_linear_2507_356" x1="9.725" y1="23.325" x2="15.8233" y2="15.1667" gradientUnits="userSpaceOnUse"><stop/><stop offset="1" stop-color="#FFE501"/></linearGradient></defs></svg><svg viewBox="0 0 16 10" fill="none" id="icon-menu-favorites-edit" xmlns="http://www.w3.org/2000/svg"><path d="M7.58075 5.4976L9.65491 7.57205L13.9924 3.23517L11.9182 1.16072L7.58075 5.4976Z" fill="white"/><path d="M14.7565 0.982947L14.0915 0.31788C13.7243 -0.0493195 13.1288 -0.0493195 12.7616 0.31788L12.2949 0.784014L14.3691 2.85815L14.8355 2.39175C15.2029 2.02481 15.124 1.35015 14.7565 0.982947Z" fill="white"/><path d="M7.2666 5.92773V8H9.19887L7.2666 5.92773Z" fill="white"/><path d="M1.31072 9.11765H7.02738L7.82947 10H0.829468L1.31072 9.11765Z" fill="#C4C4C4"/></svg><svg fill="none" viewBox="0 0 44 44" id="icon-menu-incident-investigation-dark" xmlns="http://www.w3.org/2000/svg"><path fill-rule="evenodd" clip-rule="evenodd" d="M22.04 34.128c-3.664-2.078-9.534-7.607-8.88-17.156A39.173 39.173 0 0 0 16.679 16c1.73-.568 3.665-1.343 5.453-2.385 2.014 1.15 4.619 2.483 8.554 3.393.97 5.402-1.16 13.264-8.646 17.12ZM33.5 14c2.5 7 .1 19.2-11.5 24-4.5-1.833-14.5-9.5-12-24 2.5-.333 8.4-1.7 12-4.5.331.186.665.38 1.008.58C25.42 11.481 28.246 13.123 33.5 14Z" fill="url(#awnavigation__a)"/><path fill-rule="evenodd" clip-rule="evenodd" d="M22.104 27.137c-1.29-.98-2.84-2.944-3.077-6.425.256-.074.518-.155.783-.243.688-.23 1.46-.53 2.227-.918.731.44 1.707.93 3.007 1.288-.04.813-.184 1.776-.504 2.752-.47 1.427-1.243 2.68-2.436 3.546Zm5.743-8.836c.653 2.699.05 9.816-5.77 12.27-2.577-1.071-6.623-4.703-6.02-12.27 1.254-.17 4.214-.87 6.02-2.301.276.158.541.336.817.521 1.064.714 2.296 1.541 4.953 1.78Z" fill="url(#awnavigation__b)"/><defs><linearGradient id="awnavigation__a" x1="11.938" y1="40.714" x2="18.516" y2="20.518" gradientUnits="userSpaceOnUse"><stop stop-opacity="0"/><stop offset="1" stop-color="#FF7A00"/></linearGradient><linearGradient id="awnavigation__b" x1="22.316" y1="13.908" x2="25.504" y2="24.83" gradientUnits="userSpaceOnUse"><stop stop-opacity="0"/><stop offset="1" stop-color="#FF7A00"/></linearGradient></defs></svg><svg fill="none" viewBox="0 0 44 44" id="icon-menu-incident-investigation-light" xmlns="http://www.w3.org/2000/svg"><path fill-rule="evenodd" clip-rule="evenodd" d="M22.04 34.128c-3.664-2.078-9.534-7.607-8.88-17.156A39.173 39.173 0 0 0 16.679 16c1.73-.568 3.665-1.343 5.453-2.385 2.014 1.15 4.619 2.483 8.554 3.393.97 5.402-1.16 13.264-8.646 17.12ZM33.5 14c2.5 7 .1 19.2-11.5 24-4.5-1.833-14.5-9.5-12-24 2.5-.333 8.4-1.7 12-4.5.331.186.665.38 1.008.58C25.42 11.481 28.246 13.123 33.5 14Z" fill="url(#axnavigation__a)"/><path fill-rule="evenodd" clip-rule="evenodd" d="M22.104 27.137c-1.29-.98-2.84-2.944-3.077-6.425.256-.074.518-.155.783-.243.688-.23 1.46-.53 2.227-.918.731.44 1.707.93 3.007 1.288-.04.813-.184 1.776-.504 2.752-.47 1.427-1.243 2.68-2.436 3.546Zm5.743-8.836c.653 2.699.05 9.816-5.77 12.27-2.577-1.071-6.623-4.703-6.02-12.27 1.254-.17 4.214-.87 6.02-2.301.276.158.541.336.817.521 1.064.714 2.296 1.541 4.953 1.78Z" fill="url(#axnavigation__b)"/><defs><linearGradient id="axnavigation__a" x1="11.938" y1="40.714" x2="18.516" y2="20.518" gradientUnits="userSpaceOnUse"><stop stop-color="#fff" stop-opacity="0"/><stop offset="1" stop-color="#FF7A00"/></linearGradient><linearGradient id="axnavigation__b" x1="22.316" y1="13.908" x2="25.504" y2="24.83" gradientUnits="userSpaceOnUse"><stop stop-color="#fff" stop-opacity="0"/><stop offset="1" stop-color="#FF7A00"/></linearGradient></defs></svg><svg fill="none" viewBox="0 0 44 44" id="icon-menu-jobs-dark" xmlns="http://www.w3.org/2000/svg"><path fill-rule="evenodd" clip-rule="evenodd" d="M19.25 33.25c-6.627 0-12-5.373-12-12s5.373-12 12-12 12 5.373 12 12a1.75 1.75 0 1 1-3.5 0 8.5 8.5 0 1 0-8.5 8.5 1.75 1.75 0 1 1 0 3.5Z" fill="url(#aynavigation__a)"/><path fill-rule="evenodd" clip-rule="evenodd" d="M17.543 19.282a1.5 1.5 0 0 1 1.5-1.5h9a1.5 1.5 0 1 1 0 3h-9a1.5 1.5 0 0 1-1.5-1.5Z" fill="url(#aynavigation__b)"/><path fill-rule="evenodd" clip-rule="evenodd" d="M19.543 24.282a1.5 1.5 0 0 1 1.5-1.5h16a1.5 1.5 0 1 1 0 3h-16a1.5 1.5 0 0 1-1.5-1.5Z" fill="url(#aynavigation__c)"/><defs><linearGradient id="aynavigation__b" x1="28.043" y1="19.282" x2="21.012" y2="19.282" gradientUnits="userSpaceOnUse"><stop stop-opacity="0"/><stop offset="1" stop-color="#AE01FF"/></linearGradient><linearGradient id="aynavigation__c" x1="37.043" y1="24.282" x2="24.543" y2="24.282" gradientUnits="userSpaceOnUse"><stop stop-opacity="0"/><stop offset="1" stop-color="#AE01FF"/></linearGradient><radialGradient id="aynavigation__a" cx="0" cy="0" r="1" gradientUnits="userSpaceOnUse" gradientTransform="rotate(-64.558 29.58 9.272) scale(57.0307)"><stop stop-color="#AE01FF"/><stop offset=".958" stop-opacity="0"/></radialGradient></defs></svg><svg fill="none" viewBox="0 0 44 44" id="icon-menu-jobs-light" xmlns="http://www.w3.org/2000/svg"><path fill-rule="evenodd" clip-rule="evenodd" d="M19.25 33.25c-6.627 0-12-5.373-12-12s5.373-12 12-12 12 5.373 12 12a1.75 1.75 0 1 1-3.5 0 8.5 8.5 0 1 0-8.5 8.5 1.75 1.75 0 1 1 0 3.5Z" fill="url(#aznavigation__a)"/><path fill-rule="evenodd" clip-rule="evenodd" d="M17.543 19.282a1.5 1.5 0 0 1 1.5-1.5h9a1.5 1.5 0 1 1 0 3h-9a1.5 1.5 0 0 1-1.5-1.5Z" fill="url(#aznavigation__b)"/><path fill-rule="evenodd" clip-rule="evenodd" d="M19.543 24.282a1.5 1.5 0 0 1 1.5-1.5h16a1.5 1.5 0 1 1 0 3h-16a1.5 1.5 0 0 1-1.5-1.5Z" fill="url(#aznavigation__c)"/><defs><linearGradient id="aznavigation__a" x1="15" y1="35.5" x2="37.5" y2="11.5" gradientUnits="userSpaceOnUse"><stop stop-color="#AE01FF"/><stop offset=".958" stop-color="#fff" stop-opacity="0"/></linearGradient><linearGradient id="aznavigation__b" x1="28.043" y1="19.282" x2="21.012" y2="19.282" gradientUnits="userSpaceOnUse"><stop stop-color="#fff" stop-opacity="0"/><stop offset="1" stop-color="#AE01FF"/></linearGradient><linearGradient id="aznavigation__c" x1="37.043" y1="24.282" x2="24.543" y2="24.282" gradientUnits="userSpaceOnUse"><stop stop-color="#fff" stop-opacity="0"/><stop offset="1" stop-color="#AE01FF"/></linearGradient></defs></svg><svg fill="none" viewBox="0 0 44 44" id="icon-menu-marketplace-dark" xmlns="http://www.w3.org/2000/svg"><path fill-rule="evenodd" clip-rule="evenodd" d="M7.5 15.5c0-.828-.5-3 1.5-3h3.489a2 2 0 0 1 1.946 1.542L11.696 15.5m0 0 2.816 11.979a2 2 0 0 0 1.947 1.542h14.436a1.5 1.5 0 0 0 0-3H17.25l-2.816-11.979" fill="url(#banavigation__a)"/><path fill-rule="evenodd" clip-rule="evenodd" d="M21.366 15a1 1 0 0 1 1-1h11.87a1.5 1.5 0 0 1 1.375 2.1l-3.383 7.758a1.5 1.5 0 0 1-1.375.9H19.947a1 1 0 0 1-1-1c0-.552 0-1.758 1.328-1.758H30l2.228-5h-9.862c-1 0-1-1.448-1-2Z" fill="url(#banavigation__b)"/><path fill-rule="evenodd" clip-rule="evenodd" d="M25.421 31.895a1 1 0 0 1 1-1h3.474a1 1 0 0 1 0 2H26.42a1 1 0 0 1-1-1Z" fill="url(#banavigation__c)"/><path fill-rule="evenodd" clip-rule="evenodd" d="M15.842 31.895a1 1 0 0 1 1-1h3.474a1 1 0 1 1 0 2h-3.474a1 1 0 0 1-1-1Z" fill="url(#banavigation__d)"/><defs><linearGradient id="banavigation__a" x1="19.947" y1="10.312" x2="2.414" y2="22.242" gradientUnits="userSpaceOnUse"><stop stop-color="#43FCFF"/><stop offset="1" stop-opacity="0"/></linearGradient><linearGradient id="banavigation__b" x1="35" y1="15" x2="17.84" y2="16.88" gradientUnits="userSpaceOnUse"><stop stop-color="#43FCFF"/><stop offset="1" stop-opacity="0"/></linearGradient><linearGradient id="banavigation__c" x1="31.579" y1="32.395" x2="27.551" y2="35.324" gradientUnits="userSpaceOnUse"><stop stop-color="#43FCFF"/><stop offset="1" stop-opacity="0"/></linearGradient><linearGradient id="banavigation__d" x1="22" y1="32.395" x2="17.972" y2="35.324" gradientUnits="userSpaceOnUse"><stop stop-color="#43FCFF"/><stop offset="1" stop-opacity="0"/></linearGradient></defs></svg><svg fill="none" viewBox="0 0 44 44" id="icon-menu-marketplace-light" xmlns="http://www.w3.org/2000/svg"><path fill-rule="evenodd" clip-rule="evenodd" d="M7.5 16.5c0-.828-.5-3 1.5-3h3.489a2 2 0 0 1 1.946 1.542L11.696 16.5m0 0 2.816 11.979a2 2 0 0 0 1.947 1.542h14.436a1.5 1.5 0 0 0 0-3H17.25l-2.816-11.979" fill="url(#bbnavigation__a)"/><path fill-rule="evenodd" clip-rule="evenodd" d="M25.421 32.895a1 1 0 0 1 1-1h3.474a1 1 0 0 1 0 2H26.42a1 1 0 0 1-1-1Z" fill="url(#bbnavigation__b)"/><path fill-rule="evenodd" clip-rule="evenodd" d="M21.366 16a1 1 0 0 1 1-1h11.87a1.5 1.5 0 0 1 1.375 2.1l-3.383 7.758a1.5 1.5 0 0 1-1.375.9H19.947a1 1 0 0 1-1-1c0-.552 0-1.758 1.328-1.758H30l2.228-5h-9.862c-1 0-1-1.448-1-2Z" fill="url(#bbnavigation__c)"/><path fill-rule="evenodd" clip-rule="evenodd" d="M15.842 32.895a1 1 0 0 1 1-1h3.474a1 1 0 1 1 0 2h-3.474a1 1 0 0 1-1-1Z" fill="url(#bbnavigation__d)"/><defs><linearGradient id="bbnavigation__a" x1="19.947" y1="11.312" x2="2.414" y2="23.242" gradientUnits="userSpaceOnUse"><stop stop-color="#2CD2D5"/><stop offset="1" stop-color="#fff" stop-opacity="0"/></linearGradient><linearGradient id="bbnavigation__b" x1="31.579" y1="33.395" x2="27.551" y2="36.324" gradientUnits="userSpaceOnUse"><stop stop-color="#32CACC"/><stop offset="1" stop-color="#fff" stop-opacity="0"/></linearGradient><linearGradient id="bbnavigation__c" x1="35" y1="16" x2="17.84" y2="17.88" gradientUnits="userSpaceOnUse"><stop stop-color="#43FCFF"/><stop offset="1" stop-color="#fff" stop-opacity="0"/></linearGradient><linearGradient id="bbnavigation__d" x1="22" y1="33.395" x2="17.972" y2="36.324" gradientUnits="userSpaceOnUse"><stop stop-color="#32CACC"/><stop offset="1" stop-color="#fff" stop-opacity="0"/></linearGradient></defs></svg><svg fill="none" viewBox="0 0 45 44" id="icon-menu-mth-dark" xmlns="http://www.w3.org/2000/svg"><path fill-rule="evenodd" clip-rule="evenodd" d="M32.651 10.914a2 2 0 0 1-.594 2.766L16.105 23.992a2 2 0 1 1-2.171-3.36L29.886 10.32a2 2 0 0 1 2.765.594Z" fill="url(#bcnavigation__a)"/><path fill-rule="evenodd" clip-rule="evenodd" d="M37 22.313a2 2 0 0 1-2 2H16.47a2 2 0 0 1 0-4H35a2 2 0 0 1 2 2Z" fill="url(#bcnavigation__b)"/><path fill-rule="evenodd" clip-rule="evenodd" d="M32.59 33.801a2 2 0 0 0-.442-2.794L16.196 19.407a2 2 0 0 0-2.353 3.235l15.952 11.602a2 2 0 0 0 2.794-.442Z" fill="url(#bcnavigation__c)"/><path fill-rule="evenodd" clip-rule="evenodd" d="M23.645 21.625a7.5 7.5 0 1 1-15 0 7.5 7.5 0 0 1 15 0Zm-7.5 3.5a3.5 3.5 0 1 0 0-7 3.5 3.5 0 0 0 0 7Z" fill="url(#bcnavigation__d)"/><defs><linearGradient id="bcnavigation__a" x1="22.996" y1="6.844" x2="13.592" y2="21.39" gradientUnits="userSpaceOnUse"><stop stop-color="#A74CEC"/><stop offset="1" stop-color="#220048" stop-opacity="0"/></linearGradient><linearGradient id="bcnavigation__b" x1="37.02" y1="21.813" x2="23.27" y2="21.813" gradientUnits="userSpaceOnUse"><stop stop-color="#A74CEC"/><stop offset="1" stop-color="#220048" stop-opacity="0"/></linearGradient><linearGradient id="bcnavigation__c" x1="22.996" y1="38.426" x2="11.958" y2="23.25" gradientUnits="userSpaceOnUse"><stop stop-color="#A74CEC"/><stop offset="1" stop-color="#220048" stop-opacity="0"/></linearGradient><linearGradient id="bcnavigation__d" x1="3.895" y1="21.625" x2="23.145" y2="21.625" gradientUnits="userSpaceOnUse"><stop/><stop offset="1" stop-color="#A74CEC"/></linearGradient></defs></svg><svg fill="none" viewBox="0 0 44 44" id="icon-menu-mth-light" xmlns="http://www.w3.org/2000/svg"><path fill-rule="evenodd" clip-rule="evenodd" d="M32.651 12.914a2 2 0 0 1-.594 2.766L16.105 25.992a2 2 0 1 1-2.171-3.36L29.886 12.32a2 2 0 0 1 2.765.594Z" fill="url(#bdnavigation__a)"/><path fill-rule="evenodd" clip-rule="evenodd" d="M37 24.313a2 2 0 0 1-2 2H16.47a2 2 0 0 1 0-4H35a2 2 0 0 1 2 2Z" fill="url(#bdnavigation__b)"/><path fill-rule="evenodd" clip-rule="evenodd" d="M32.59 35.801a2 2 0 0 0-.442-2.793L16.196 21.406a2 2 0 0 0-2.353 3.235l15.952 11.602a2 2 0 0 0 2.794-.442Z" fill="url(#bdnavigation__c)"/><path fill-rule="evenodd" clip-rule="evenodd" d="M23.645 23.625a7.5 7.5 0 1 1-15 0 7.5 7.5 0 0 1 15 0Zm-7.5 3.5a3.5 3.5 0 1 0 0-7 3.5 3.5 0 0 0 0 7Z" fill="url(#bdnavigation__d)"/><defs><linearGradient id="bdnavigation__a" x1="22.996" y1="8.844" x2="13.592" y2="23.39" gradientUnits="userSpaceOnUse"><stop stop-color="#A74CEC"/><stop offset="1" stop-color="#fff" stop-opacity="0"/></linearGradient><linearGradient id="bdnavigation__b" x1="37.02" y1="23.813" x2="23.27" y2="23.813" gradientUnits="userSpaceOnUse"><stop stop-color="#A74CEC"/><stop offset="1" stop-color="#220048" stop-opacity="0"/></linearGradient><linearGradient id="bdnavigation__c" x1="22.996" y1="40.426" x2="11.958" y2="25.25" gradientUnits="userSpaceOnUse"><stop stop-color="#A74CEC"/><stop offset="1" stop-color="#fff" stop-opacity="0"/></linearGradient><linearGradient id="bdnavigation__d" x1="3.895" y1="23.625" x2="23.145" y2="23.625" gradientUnits="userSpaceOnUse"><stop stop-color="#fff"/><stop offset="1" stop-color="#A74CEC"/></linearGradient></defs></svg><svg fill="none" viewBox="0 0 44 44" id="icon-menu-my-incidents-dark" xmlns="http://www.w3.org/2000/svg"><path d="M22.216 17.806V31.02" stroke="url(#benavigation__a)" stroke-width="3.5" stroke-linecap="round"/><path d="M9 31.622 22.305 13l5.34 8.436 5.205 8.221" stroke="url(#benavigation__b)" stroke-width="4" stroke-linecap="round" stroke-linejoin="round"/><defs><linearGradient id="benavigation__a" x1="2015020" y1="31.105" x2="2015020" y2="20.079" gradientUnits="userSpaceOnUse"><stop stop-color="#FFD150"/><stop offset="1"/></linearGradient><linearGradient id="benavigation__b" x1="6.597" y1="34.626" x2="32.426" y2="30.409" gradientUnits="userSpaceOnUse"><stop stop-opacity="0"/><stop offset="1" stop-color="#FFD14F"/></linearGradient></defs></svg><svg fill="none" viewBox="0 0 44 44" id="icon-menu-my-incidents-light" xmlns="http://www.w3.org/2000/svg"><path d="M23.216 19.806V33.02" stroke="url(#bfnavigation__a)" stroke-width="4" stroke-linecap="round"/><path d="M10 33.622 23.305 15l5.34 8.436 5.205 8.221" stroke="url(#bfnavigation__b)" stroke-width="4" stroke-linecap="round" stroke-linejoin="round"/><defs><linearGradient id="bfnavigation__a" x1="2015020" y1="33.105" x2="2015020" y2="22.079" gradientUnits="userSpaceOnUse"><stop stop-color="#FFD150"/><stop offset="1" stop-color="#fff"/></linearGradient><linearGradient id="bfnavigation__b" x1="7.597" y1="36.626" x2="33.426" y2="32.409" gradientUnits="userSpaceOnUse"><stop stop-color="#fff" stop-opacity="0"/><stop offset="1" stop-color="#FFD14F"/></linearGradient></defs></svg><svg fill="none" viewBox="0 0 44 44" id="icon-menu-playbooks-dark" xmlns="http://www.w3.org/2000/svg"><circle cx="23" cy="21" r="7" stroke="url(#bgnavigation__a)" stroke-width="4"/><circle cx="14" cy="30" r="5" stroke="url(#bgnavigation__b)" stroke-width="4"/><circle cx="31" cy="30" r="5" stroke="url(#bgnavigation__c)" stroke-width="4"/><defs><linearGradient id="bgnavigation__a" x1="23.412" y1="14" x2="22.877" y2="23.526" gradientUnits="userSpaceOnUse"><stop stop-color="#02D77A"/><stop offset="1"/></linearGradient><linearGradient id="bgnavigation__b" x1="14.294" y1="25" x2="13.912" y2="31.804" gradientUnits="userSpaceOnUse"><stop stop-color="#02D77A"/><stop offset="1"/></linearGradient><linearGradient id="bgnavigation__c" x1="31.294" y1="25" x2="30.912" y2="31.804" gradientUnits="userSpaceOnUse"><stop stop-color="#02D77A"/><stop offset="1"/></linearGradient></defs></svg><svg fill="none" viewBox="0 0 44 44" id="icon-menu-playbooks-light" xmlns="http://www.w3.org/2000/svg"><circle cx="23" cy="21" r="7" stroke="url(#bhnavigation__a)" stroke-width="4"/><circle cx="14" cy="30" r="5" stroke="url(#bhnavigation__b)" stroke-width="4"/><circle cx="31" cy="30" r="5" stroke="url(#bhnavigation__c)" stroke-width="4"/><defs><linearGradient id="bhnavigation__a" x1="23.412" y1="14" x2="22.877" y2="23.526" gradientUnits="userSpaceOnUse"><stop stop-color="#02D77A"/><stop offset="1" stop-color="#fff"/></linearGradient><linearGradient id="bhnavigation__b" x1="14.294" y1="25" x2="13.912" y2="31.804" gradientUnits="userSpaceOnUse"><stop stop-color="#02D77A"/><stop offset="1" stop-color="#fff"/></linearGradient><linearGradient id="bhnavigation__c" x1="31.294" y1="25" x2="30.912" y2="31.804" gradientUnits="userSpaceOnUse"><stop stop-color="#02D77A"/><stop offset="1" stop-color="#fff"/></linearGradient></defs></svg><svg fill="none" viewBox="0 0 44 44" id="icon-menu-xsoar-ng-incidents-dark" xmlns="http://www.w3.org/2000/svg"><path d="M22 12c-1.818 3.71-7.424 4.894-10 5.023 0 12.054 6.667 16.356 10 17V12Z" stroke="url(#binavigation__a)" stroke-width="3.5" stroke-linecap="round" stroke-linejoin="round"/><path d="M22 12c1.818 3.71 7.424 4.894 10 5.023 0 12.054-6.667 16.356-10 17V12Z" stroke="url(#binavigation__b)" stroke-width="3.5" stroke-linecap="round" stroke-linejoin="round"/><defs><linearGradient id="binavigation__a" x1="17.454" y1="21.273" x2="17.126" y2="34.026" gradientUnits="userSpaceOnUse"><stop stop-color="#FF60A3"/><stop offset="1" stop-opacity="0"/></linearGradient><linearGradient id="binavigation__b" x1="27.454" y1="14.704" x2="29.84" y2="21.922" gradientUnits="userSpaceOnUse"><stop stop-opacity="0"/><stop offset="1" stop-color="#FF60A3"/></linearGradient></defs></svg><svg fill="none" viewBox="0 0 44 44" id="icon-menu-xsoar-ng-incidents-light" xmlns="http://www.w3.org/2000/svg"><path d="M22 12c-1.818 3.71-7.424 4.894-10 5.023 0 12.054 6.667 16.356 10 17V12Z" stroke="url(#bjnavigation__a)" stroke-width="3.5" stroke-linecap="round" stroke-linejoin="round"/><path d="M22 12c1.818 3.71 7.424 4.894 10 5.023 0 12.054-6.667 16.356-10 17V12Z" stroke="url(#bjnavigation__b)" stroke-width="3.5" stroke-linecap="round" stroke-linejoin="round"/><defs><linearGradient id="bjnavigation__a" x1="17.454" y1="21.273" x2="17.126" y2="34.026" gradientUnits="userSpaceOnUse"><stop stop-color="#FF60A3"/><stop offset="1" stop-color="#fff" stop-opacity="0"/></linearGradient><linearGradient id="bjnavigation__b" x1="27.454" y1="14.704" x2="29.84" y2="21.922" gradientUnits="userSpaceOnUse"><stop stop-color="#fff" stop-opacity="0"/><stop offset="1" stop-color="#FF60A3"/></linearGradient></defs></svg><svg viewBox="0 0 16 16" fill="none" id="icon-nav-copilot" xmlns="http://www.w3.org/2000/svg"><path d="M5.5 0.75V2H7.25V0.75C7.25 0.34375 7.5625 0 8 0C8.40625 0 8.75 0.34375 8.75 0.75V2H10.5V0.75C10.5 0.34375 10.8125 0 11.25 0C11.6562 0 12 0.34375 12 0.75V2C13.0938 2 14 2.90625 14 4H15.25C15.6562 4 16 4.34375 16 4.75C16 5.1875 15.6562 5.5 15.25 5.5H14V7.25H15.25C15.6562 7.25 16 7.59375 16 8C16 8.4375 15.6562 8.75 15.25 8.75H14V10.5H15.25C15.6562 10.5 16 10.8438 16 11.25C16 11.6875 15.6562 12 15.25 12H14C14 13.125 13.0938 14 12 14V15.25C12 15.6875 11.6562 16 11.25 16C10.8125 16 10.5 15.6875 10.5 15.25V14H8.75V15.25C8.75 15.6875 8.40625 16 8 16C7.5625 16 7.25 15.6875 7.25 15.25V14H5.5V15.25C5.5 15.6875 5.15625 16 4.75 16C4.3125 16 4 15.6875 4 15.25V14C2.875 14 2 13.125 2 12H0.75C0.3125 12 0 11.6875 0 11.25C0 10.8438 0.3125 10.5 0.75 10.5H2V8.75H0.75C0.3125 8.75 0 8.4375 0 8C0 7.59375 0.3125 7.25 0.75 7.25H2V5.5H0.75C0.3125 5.5 0 5.1875 0 4.75C0 4.34375 0.3125 4 0.75 4H2C2 2.90625 2.875 2 4 2V0.75C4 0.34375 4.3125 0 4.75 0C5.15625 0 5.5 0.34375 5.5 0.75ZM6.5 5.5C6.28125 5.5 6.09375 5.625 6.03125 5.8125L4.71875 8.8125L4.28125 9.8125C4.15625 10.0625 4.28125 10.3438 4.53125 10.4688C4.78125 10.5938 5.09375 10.4688 5.1875 10.2188L5.5 9.5H7.46875L7.78125 10.2188C7.90625 10.4688 8.1875 10.5938 8.4375 10.4688C8.6875 10.375 8.8125 10.0625 8.6875 9.8125L8.25 8.8125L6.9375 5.8125C6.875 5.625 6.6875 5.5 6.5 5.5ZM7.03125 8.5H5.9375L6.5 7.25L7.03125 8.5ZM10.5 5.5C10.2188 5.5 10 5.75 10 6V10C10 10.2812 10.2188 10.5 10.5 10.5C10.75 10.5 11 10.2812 11 10V6C11 5.75 10.75 5.5 10.5 5.5Z" fill="currentColor"/></svg><svg fill="none" viewBox="0 0 32 32" id="icon-nav-cortex-copilot" xmlns="http://www.w3.org/2000/svg"><path fill-rule="evenodd" clip-rule="evenodd" d="M15.127 5.816a.5.5 0 1 1-.991.134.5.5 0 0 1 .99-.134Zm-3.03 1.31a.5.5 0 1 0-.41-.912.5.5 0 0 0 .41.912Zm-2.24.76a.5.5 0 1 1-.76.651.5.5 0 0 1 .76-.65Zm-1.829 2.735a.5.5 0 1 0-.837-.546.5.5 0 0 0 .837.546Zm-1.467 1.82a.5.5 0 1 1-.287.958.5.5 0 0 1 .287-.958ZM6.5 15.716a.5.5 0 1 0-1-.007.5.5 0 0 0 1 .007Zm19 .075a.5.5 0 1 0 1 0 .5.5 0 0 0-1 0Zm-.38 2.668a.5.5 0 1 0 .96.28.5.5 0 0 0-.96-.28Zm-.972 3.153a.5.5 0 1 1 .54-.841.5.5 0 0 1-.54.841Zm-1.924 1.354a.5.5 0 1 0 .656.754.5.5 0 0 0-.656-.754Zm-2.523 2.13a.5.5 0 1 1 .91-.416.5.5 0 0 1-.91.417Zm-2.349.1a.5.5 0 1 0 .142.99.5.5 0 0 0-.142-.99Zm-3.31.418a.5.5 0 1 1 .99.143.5.5 0 0 1-.99-.143ZM12.02 24.42a.5.5 0 1 0-.417.909.5.5 0 0 0 .417-.909ZM9.048 23a.5.5 0 1 1 .754.657.5.5 0 0 1-.754-.657Zm-1.057-2.095a.5.5 0 1 0-.842.54.5.5 0 0 0 .842-.54Zm-1.735-2.795a.5.5 0 1 1 .28.96.5.5 0 0 1-.28-.96ZM17.402 6.393a.5.5 0 1 0 .15-.989.5.5 0 0 0-.15.99Zm3.253.532a.5.5 0 1 1-.906-.424.5.5 0 0 1 .906.424Zm1.617 1.731a.5.5 0 1 0 .663-.75.5.5 0 0 0-.662.75Zm2.45 2.216a.5.5 0 1 1-.534-.846.5.5 0 0 1 .534.846Zm.417 2.317a.5.5 0 1 0 .962-.273.5.5 0 0 0-.962.273Z" fill="url(#blnavigation__a)"/><path fill-rule="evenodd" clip-rule="evenodd" d="M17.436 8.895a.75.75 0 1 1-1.493-.15.75.75 0 0 1 1.493.15Zm-3.143.878a.75.75 0 1 0-.404-1.444.75.75 0 0 0 .404 1.444Zm-1.868-.052a.75.75 0 1 1-1.203.895.75.75 0 0 1 1.203-.895Zm-1.715 2.737a.75.75 0 1 0-1.269-.8.75.75 0 0 0 1.269.8Zm-1.446 1.278a.75.75 0 1 1-.281 1.474.75.75 0 0 1 .28-1.474ZM23 16.538a.75.75 0 1 1 0-1.5.75.75 0 0 1 0 1.5Zm-.735 2.464a.75.75 0 1 1 .538-1.4.75.75 0 0 1-.538 1.4Zm-1.645.996a.75.75 0 1 0 1.11 1.009.75.75 0 0 0-1.11-1.01Zm-2.17 2.392a.75.75 0 1 1 1.342-.67.75.75 0 0 1-1.342.67Zm-1.873-.378a.75.75 0 1 0 .138 1.494.75.75 0 0 0-.139-1.494Zm-3.24.293a.75.75 0 1 1 1.441.415.75.75 0 0 1-1.442-.415Zm-1.123-1.543a.75.75 0 1 0-.908 1.193.75.75 0 0 0 .908-1.193Zm-2.573-1.95a.75.75 0 1 1 .786 1.278.75.75 0 0 1-.786-1.277Zm.21-1.895a.75.75 0 1 0-1.475.27.75.75 0 0 0 1.476-.27Zm9-6.694a.75.75 0 1 0 .685-1.334.75.75 0 0 0-.686 1.334Zm2.853 1.44a.75.75 0 1 1-1.001-1.116.75.75 0 0 1 1.001 1.117Zm.148 1.925a.75.75 0 1 0 1.405-.527.75.75 0 0 0-1.405.527Z" fill="url(#blnavigation__b)"/><path fill-rule="evenodd" clip-rule="evenodd" d="M16.014 12.04a1 1 0 1 1-1.952.435 1 1 0 0 1 1.952-.434Zm-2.463 2.723a1 1 0 1 0-1.795-.88 1 1 0 0 0 1.795.88Zm6.1 1.861a1 1 0 1 1 0-2 1 1 0 0 1 0 2Zm-2.024 2.535a1 1 0 1 1 1.56-1.252 1 1 0 0 1-1.56 1.252Zm-2.067-.76a1 1 0 1 0-.449 1.95 1 1 0 0 0 .45-1.95Zm-3.211-1.796a1 1 0 1 1 .867 1.803 1 1 0 0 1-.867-1.803Zm5.195-2.98a1 1 0 1 0 1.263-1.551 1 1 0 0 0-1.263 1.55Z" fill="url(#blnavigation__c)"/><defs><linearGradient id="blnavigation__a" x1="23.5" y1="16" x2="5.5" y2="15.787" gradientUnits="userSpaceOnUse"><stop stop-color="#5BFFA5"/><stop offset="1" stop-color="#1A482F"/></linearGradient><linearGradient id="blnavigation__b" x1="23.75" y1="15.79" x2="8.364" y2="15.79" gradientUnits="userSpaceOnUse"><stop stop-color="#1A482F"/><stop offset="1" stop-color="#5BFFA5"/></linearGradient><linearGradient id="blnavigation__c" x1="18.5" y1="16" x2="11.5" y2="16" gradientUnits="userSpaceOnUse"><stop stop-color="#5BFFA5"/><stop offset="1" stop-color="#1A482F"/></linearGradient></defs></svg><svg viewBox="0 0 24 24" fill="none" id="icon-nav-help" xmlns="http://www.w3.org/2000/svg"><circle cx="12" cy="13" r="7.5" stroke="white"/><path d="M12.0998 9.00069C12.5003 8.99617 12.8992 9.05135 13.2833 9.16443C13.6158 9.26118 13.9271 9.41952 14.2011 9.63122C14.4492 9.82785 14.6499 10.0777 14.7885 10.3623C14.9319 10.6605 15.0042 10.9879 14.9997 11.3188C15.0045 11.5561 14.9554 11.7913 14.856 12.0068C14.7641 12.2028 14.6446 12.3846 14.5013 12.5468C14.3609 12.7056 14.205 12.8499 14.0359 12.9777C13.8693 13.1041 13.7142 13.219 13.5706 13.3239C13.4425 13.4151 13.3215 13.5159 13.2086 13.6255C13.1247 13.6985 13.073 13.8018 13.065 13.9127V14.3953H11.1232V13.5925C11.1235 13.4552 11.1613 13.3206 11.2323 13.2032C11.31 13.0772 11.4021 12.9605 11.5067 12.8556C11.6173 12.7422 11.735 12.6287 11.8614 12.5181C11.9878 12.4075 12.1056 12.2912 12.2162 12.172C12.3225 12.056 12.4146 11.9277 12.4905 11.7899C12.5634 11.6582 12.6006 11.5096 12.5982 11.3591C12.5989 11.2568 12.5819 11.1553 12.548 11.0589C12.5176 10.9662 12.4688 10.8807 12.4043 10.8075C12.338 10.7344 12.2579 10.6748 12.1688 10.6323C12.0698 10.5866 11.9618 10.564 11.8528 10.5662C11.7222 10.5603 11.5924 10.5891 11.4765 10.6495C11.3843 10.7011 11.3067 10.7753 11.251 10.865C11.1961 10.9592 11.1595 11.063 11.1433 11.1709C11.1247 11.2863 11.1156 11.403 11.116 11.5199V11.6722C11.1158 11.7231 11.1192 11.7739 11.126 11.8244H9.0334C9.02622 11.7512 9.01904 11.6808 9.01186 11.6104C9.00429 11.5398 9.00046 11.4688 9.00037 11.3978C8.99387 11.0486 9.0738 10.7033 9.23304 10.3924C9.38966 10.0953 9.61043 9.83675 9.87937 9.63552C10.1743 9.41707 10.5068 9.25449 10.8603 9.15581C11.264 9.04551 11.6814 8.99328 12.0998 9.00069Z" fill="white"/><path d="M13.0928 15.1169H11.1309V16.9481H13.0928V15.1169Z" fill="white"/></svg><svg viewBox="0 0 36 36" fill="none" id="icon-nav-logo" xmlns="http://www.w3.org/2000/svg"><rect width="36" height="36" rx="6" fill="white"/><rect width="36" height="36" rx="6" fill="white"/><path fill-rule="evenodd" clip-rule="evenodd" d="M33.161 0.746582C33.161 0.746582 34.1884 1.44887 34.5804 1.86912C34.7071 2.00488 34.9001 2.25335 35.1033 2.52753C35.7037 3.33767 35.9999 4.32913 35.9999 5.33751V29.8234C35.9999 31.3564 35.4131 32.8313 34.36 33.9453L34.2545 34.0568L33.161 35.2135V0.746582Z" fill="#00CC66"/><path fill-rule="evenodd" clip-rule="evenodd" d="M25.2927 17.9448C25.2927 21.0572 22.8526 23.5885 19.8311 23.5885V12.3011C22.8526 12.3011 25.2927 14.8226 25.2927 17.9448Z" fill="#191C1E"/><g><path fill-rule="evenodd" clip-rule="evenodd" d="M14.1854 17.7433C14.1854 20.8191 16.6772 23.3207 19.7628 23.3207V27.5256C14.3704 27.5256 10 23.1552 10 17.7628C10 12.3704 14.3704 8 19.7628 8V12.1854C16.6772 12.166 14.1854 14.6578 14.1854 17.7433Z" fill="#191C1E"/></g></svg><svg viewBox="0 0 24 24" fill="none" id="icon-nav-settings" xmlns="http://www.w3.org/2000/svg"><path fill-rule="evenodd" clip-rule="evenodd" d="M16.3571 10.6174L17.7336 10.956C17.8901 10.9951 18 11.1355 18 11.2969V12.7031C18 12.8645 17.8901 13.0049 17.7336 13.044L16.3571 13.3826C16.2764 13.6373 16.1731 13.8848 16.0485 14.1214L16.6805 15.1744C16.7636 15.3127 16.7416 15.4899 16.6276 15.6038L15.6334 16.5981C15.5194 16.7124 15.3422 16.7337 15.2039 16.651L14.1622 16.0261C13.914 16.1607 13.6531 16.2716 13.3822 16.3575L13.044 17.7336C13.0049 17.8901 12.8645 18 12.7031 18H11.2969C11.1355 18 10.9947 17.8901 10.956 17.7336L10.6178 16.3574C10.3545 16.274 10.099 16.1666 9.85493 16.0364C9.51778 16.2383 8.82942 16.651 8.82942 16.651C8.69072 16.7334 8.51358 16.7118 8.39993 16.5981L7.40566 15.6038C7.29169 15.4899 7.2697 15.3127 7.35279 15.1744L7.96664 14.1513C7.83513 13.9044 7.72666 13.6473 7.64323 13.3826L6.26641 13.044C6.10988 13.0053 6 12.8645 6 12.7031V11.2969C6 11.1355 6.10987 10.9951 6.26644 10.956L7.6429 10.6164C7.7167 10.384 7.8094 10.1571 7.91995 9.93905L7.23398 8.79338C7.1509 8.65502 7.17288 8.47786 7.28686 8.36388L8.28113 7.36962C8.39545 7.25564 8.57191 7.23434 8.71062 7.31674L9.81989 7.98244C10.0743 7.84373 10.3414 7.73009 10.6178 7.64255C10.7215 7.22712 10.956 6.26641 10.956 6.26641C10.9947 6.10988 11.1355 6 11.2969 6H12.7031C12.8645 6 13.0049 6.10987 13.0441 6.26644L13.3826 7.6429C13.6418 7.72495 13.8934 7.83035 14.1341 7.95773L15.2039 7.31674C15.3426 7.23333 15.5194 7.25529 15.6334 7.36962L16.6277 8.36388C16.7416 8.47786 16.7636 8.65502 16.6805 8.79338C16.6805 8.79338 16.2462 9.51743 16.0395 9.86145C16.168 10.1035 16.2744 10.3565 16.3571 10.6174ZM9.53906 12C9.53906 13.3568 10.6432 14.4609 12 14.4609C13.3568 14.4609 14.4609 13.3568 14.4609 12C14.4609 10.6432 13.3568 9.53906 12 9.53906C10.6432 9.53906 9.53906 10.6432 9.53906 12Z" fill="white"/></svg><svg viewBox="0 0 24 24" fill="none" id="icon-nav-tenant-navigator" xmlns="http://www.w3.org/2000/svg"><rect x="6" y="6" width="3" height="3" fill="white"/><rect x="10.5" y="6" width="3" height="3" fill="white"/><rect x="15" y="6" width="3" height="3" fill="white"/><rect x="6" y="10.5" width="3" height="3" fill="white"/><rect x="10.5" y="10.5" width="3" height="3" fill="white"/><rect x="15" y="10.5" width="3" height="3" fill="white"/><rect x="6" y="15" width="3" height="3" fill="white"/><rect x="10.5" y="15" width="3" height="3" fill="white"/><rect x="15" y="15" width="3" height="3" fill="white"/></svg><svg viewBox="0 0 24 24" fill="none" id="icon-navigation-askdbot-24-s" xmlns="http://www.w3.org/2000/svg"><rect width="24" height="24" fill="white"/><path fill-rule="evenodd" clip-rule="evenodd" d="M12.0079 6.5C12.5767 6.5 13.129 6.63905 13.6647 6.91715C14.2004 7.19525 14.6336 7.56492 14.9643 8.02616C15.3214 8.5281 15.5 9.06395 15.5 9.63372C15.5 10.0814 15.4074 10.4748 15.2222 10.814C15.0635 11.0988 14.8452 11.3566 14.5675 11.5872C14.3955 11.7229 14.1376 11.8924 13.7937 12.0959C13.5159 12.2587 13.3307 12.3808 13.2381 12.4622C13.0794 12.5979 13 12.7403 13 12.8895V13.0116C13 13.1473 12.9537 13.2626 12.8611 13.3576C12.7685 13.4525 12.6561 13.5 12.5238 13.5H11.0952C10.963 13.5 10.8505 13.4525 10.7579 13.3576C10.6653 13.2626 10.619 13.1473 10.619 13.0116V12.8081C10.619 12.2655 10.791 11.8043 11.1349 11.4244C11.3466 11.2074 11.7037 10.9564 12.2063 10.6715L12.246 10.6512C12.6032 10.4477 12.8413 10.2849 12.9603 10.1628C13.1323 10 13.2183 9.81686 13.2183 9.61337C13.2183 9.31492 13.0661 9.07074 12.7619 8.88081C12.4841 8.69089 12.1799 8.59593 11.8492 8.59593C11.4921 8.59593 11.1878 8.68411 10.9365 8.86047C10.7381 8.99612 10.4934 9.24031 10.2024 9.59302C10.123 9.70155 10.0205 9.76599 9.89484 9.78634C9.76918 9.80669 9.65344 9.77616 9.54762 9.69477L8.69444 9.02326C8.58862 8.94186 8.52579 8.83672 8.50595 8.70785C8.48611 8.57897 8.51587 8.46027 8.59524 8.35174C9.01852 7.74128 9.4881 7.28682 10.004 6.98837C10.5728 6.66279 11.2407 6.5 12.0079 6.5ZM12 14.5C12.4203 14.5 12.7754 14.6475 13.0652 14.9424C13.3551 15.2374 13.5 15.5899 13.5 16C13.5 16.4101 13.3551 16.7626 13.0652 17.0576C12.7754 17.3525 12.4203 17.5 12 17.5C11.5797 17.5 11.2246 17.3525 10.9348 17.0576C10.6449 16.7626 10.5 16.4101 10.5 16C10.5 15.5899 10.6449 15.2374 10.9348 14.9424C11.2246 14.6475 11.5797 14.5 12 14.5Z" fill="#333333"/><path fill-rule="evenodd" clip-rule="evenodd" d="M12 22C17.5228 22 22 17.5228 22 12C22 6.47715 17.5228 2 12 2C6.47715 2 2 6.47715 2 12C2 17.5228 6.47715 22 12 22ZM12 23C18.0751 23 23 18.0751 23 12C23 5.92487 18.0751 1 12 1C5.92487 1 1 5.92487 1 12C1 18.0751 5.92487 23 12 23Z" fill="#DADBDB"/></svg><svg viewBox="0 0 24 24" fill="none" id="icon-notifications-bell" xmlns="http://www.w3.org/2000/svg"><path d="M16.4473 14.2311C15.7102 13.6081 15.2875 12.6974 15.2875 11.7326V10.3735C15.2875 8.65799 14.0132 7.2379 12.3625 7H11.3875C9.73634 7.2379 8.4625 8.65799 8.4625 10.3735V11.7326C8.4625 12.6974 8.03984 13.6081 7.29835 14.235C7.10871 14.3973 7 14.6333 7 14.8829C7 15.3533 7.38269 15.736 7.85312 15.736H15.8969C16.3673 15.736 16.75 15.3533 16.75 14.8829C16.75 14.6333 16.6413 14.3973 16.4473 14.2311Z" fill="white"/><path d="M11.875 17.6526C12.7582 17.6526 13.497 17.0071 13.6667 16.1526H10.0834C10.2531 17.0071 10.9919 17.6526 11.875 17.6526Z" fill="white"/></svg><svg viewBox="0 0 10 10" fill="none" id="icon-theme-toggle-dark" xmlns="http://www.w3.org/2000/svg"><path d="M4.32834 6.00848C3.72751 5.26567 3.38007 4.34974 3.33624 3.39311C3.29241 2.43649 3.55447 1.48873 4.08453 0.686874C4.11615 0.640297 4.13203 0.584908 4.12982 0.528863C4.12761 0.472818 4.10743 0.419081 4.07225 0.375568C4.03707 0.332054 3.98875 0.301063 3.93441 0.28716C3.88008 0.273257 3.82259 0.277176 3.77042 0.29834C3.04555 0.597039 2.39951 1.06033 1.88385 1.65124C1.36819 2.24215 0.997183 2.94434 0.800425 3.70177C0.603668 4.4592 0.586608 5.25091 0.750608 6.01373C0.914608 6.77655 1.25513 7.48938 1.745 8.09532C2.23487 8.70127 2.86053 9.18358 3.57207 9.50375C4.2836 9.82393 5.06132 9.97311 5.84316 9.93941C6.625 9.9057 7.38933 9.69004 8.07516 9.30962C8.76099 8.9292 9.34935 8.39456 9.79328 7.74836C9.82571 7.70205 9.84234 7.64662 9.84071 7.59032C9.83907 7.53403 9.81926 7.47989 9.78422 7.43597C9.74918 7.39206 9.70079 7.36072 9.64626 7.34664C9.59174 7.33256 9.534 7.33648 9.48165 7.35782C8.58683 7.70877 7.60529 7.76718 6.67892 7.52462C5.75255 7.28206 4.92936 6.7511 4.32834 6.00848V6.00848Z" fill="currentColor"/></svg><svg viewBox="0 0 12 15" fill="none" id="icon-theme-toggle-light" xmlns="http://www.w3.org/2000/svg"><path d="M5.95343 3.59899H6.04225C6.10404 3.59961 6.16533 3.58797 6.22258 3.56476C6.27984 3.54154 6.33193 3.50721 6.37583 3.46374C6.41974 3.42027 6.45459 3.36852 6.47837 3.3115C6.50216 3.25448 6.5144 3.1933 6.5144 3.13152V1.06903C6.5144 0.945053 6.46515 0.826151 6.37748 0.738483C6.28981 0.650815 6.17091 0.601562 6.04693 0.601562H5.95343C5.82945 0.601562 5.71055 0.650815 5.62288 0.738483C5.53521 0.826151 5.48596 0.945053 5.48596 1.06903V3.13152C5.48596 3.2555 5.53521 3.37441 5.62288 3.46207C5.71055 3.54974 5.82945 3.59899 5.95343 3.59899Z" fill="currentColor"/><path d="M9.33987 5.55239C9.37026 5.60611 9.41098 5.65329 9.45969 5.69119C9.5084 5.7291 9.56413 5.75698 9.62367 5.77323C9.68321 5.78949 9.74538 5.79379 9.80659 5.7859C9.8678 5.778 9.92685 5.75806 9.98031 5.72722L11.7661 4.69879C11.8734 4.6368 11.9518 4.53469 11.9839 4.41494C12.0159 4.29518 11.9991 4.16759 11.9372 4.06022L11.8904 3.97982C11.8284 3.87245 11.7263 3.79411 11.6066 3.76202C11.4868 3.72994 11.3592 3.74674 11.2518 3.80872L9.46609 4.83716C9.41254 4.86809 9.36566 4.90934 9.32816 4.95851C9.29066 5.00769 9.2633 5.06382 9.24764 5.12364C9.23199 5.18347 9.22837 5.24581 9.23697 5.30705C9.24558 5.36829 9.26626 5.42721 9.2978 5.4804L9.33987 5.55239Z" fill="currentColor"/><path d="M11.9839 10.4497C11.951 10.3312 11.8727 10.2305 11.7661 10.1693L9.98031 9.14082C9.92675 9.10987 9.86758 9.08987 9.80623 9.08196C9.74488 9.07405 9.68257 9.0784 9.62292 9.09475C9.56326 9.1111 9.50744 9.13912 9.45869 9.1772C9.40995 9.21528 9.36924 9.26266 9.33894 9.31658L9.2978 9.38764C9.26626 9.44083 9.24558 9.49975 9.23697 9.56099C9.22837 9.62223 9.23199 9.68457 9.24764 9.7444C9.2633 9.80422 9.29066 9.86035 9.32816 9.90953C9.36566 9.9587 9.41254 9.99995 9.46609 10.0309L11.2518 11.0593C11.3592 11.1213 11.4868 11.1381 11.6066 11.106C11.7263 11.0739 11.8284 10.9956 11.8904 10.8882L11.9372 10.8078C11.9683 10.7542 11.9885 10.6949 11.9965 10.6335C12.0045 10.572 12.0002 10.5095 11.9839 10.4497Z" fill="currentColor"/><path d="M6.04254 11.262H5.96026C5.83535 11.2612 5.71513 11.3096 5.62556 11.3967C5.58161 11.4402 5.54675 11.4921 5.523 11.5492C5.49925 11.6064 5.48707 11.6676 5.48718 11.7295V13.792C5.48718 13.916 5.53644 14.0349 5.6241 14.1226C5.71177 14.2102 5.83067 14.2595 5.95466 14.2595H6.04815C6.17213 14.2595 6.29103 14.2102 6.3787 14.1226C6.46637 14.0349 6.51562 13.916 6.51562 13.792V11.7295C6.51561 11.6676 6.50329 11.6063 6.47937 11.5491C6.45546 11.492 6.42043 11.4402 6.37632 11.3967C6.33259 11.353 6.28049 11.3185 6.22314 11.2954C6.16579 11.2722 6.10437 11.2609 6.04254 11.262Z" fill="currentColor"/><path d="M2.66084 9.31547C2.63045 9.26175 2.58973 9.21457 2.54103 9.17667C2.49232 9.13877 2.43658 9.11088 2.37704 9.09463C2.3175 9.07837 2.25533 9.07407 2.19412 9.08197C2.13291 9.08986 2.07387 9.1098 2.0204 9.14064L0.233722 10.1691C0.126357 10.2311 0.048015 10.3332 0.0159287 10.4529C-0.0161576 10.5727 0.000639545 10.7003 0.0626274 10.8076L0.109375 10.888C0.150482 10.9592 0.209641 11.0183 0.280882 11.0594C0.352123 11.1004 0.432926 11.1219 0.515141 11.1218C0.596954 11.1221 0.677361 11.1005 0.747941 11.0591L2.53368 10.0307C2.58719 9.99985 2.63405 9.9587 2.67155 9.90964C2.70906 9.86057 2.73648 9.80455 2.75221 9.74483C2.76795 9.68511 2.77169 9.62286 2.76323 9.56168C2.75477 9.5005 2.73427 9.44161 2.70291 9.3884C2.68795 9.35941 2.67673 9.3351 2.66084 9.31547Z" fill="currentColor"/><path d="M2.53385 4.83377L0.748108 3.80533C0.695151 3.77429 0.636518 3.75417 0.575662 3.74614C0.514806 3.73811 0.452959 3.74234 0.393765 3.75859C0.275254 3.79148 0.174479 3.86975 0.113282 3.97643L0.0665347 4.05683C0.00454685 4.1642 -0.0122517 4.2918 0.0198346 4.41155C0.0519208 4.53131 0.130264 4.63341 0.237629 4.6954L2.0243 5.72384C2.07783 5.75463 2.13692 5.77452 2.19817 5.78235C2.25942 5.79018 2.32162 5.78579 2.38116 5.76945C2.44071 5.75311 2.49643 5.72513 2.5451 5.68713C2.59377 5.64913 2.63444 5.60187 2.66474 5.54807L2.70588 5.47608C2.7377 5.4231 2.75856 5.36428 2.76723 5.30309C2.7759 5.2419 2.77221 5.1796 2.75637 5.11986C2.74019 5.05977 2.71217 5.0035 2.67396 4.95437C2.63575 4.90525 2.58812 4.86425 2.53385 4.83377Z" fill="currentColor"/><path d="M6.00037 10.255C7.56028 10.255 8.82483 8.99045 8.82483 7.43054C8.82483 5.87063 7.56028 4.60608 6.00037 4.60608C4.44046 4.60608 3.1759 5.87063 3.1759 7.43054C3.1759 8.99045 4.44046 10.255 6.00037 10.255Z" fill="currentColor"/></svg><svg viewBox="0 0 140 21" fill="none" id="icon-xdr-text" xmlns="http://www.w3.org/2000/svg"><path fill-rule="evenodd" clip-rule="evenodd" d="M107.004 7.1687C107.263 6.54086 107.392 5.85678 107.392 5.11648C107.392 4.38087 107.263 3.70148 107.004 3.07832C106.752 2.45048 106.393 1.90931 105.929 1.45483C105.465 1.00034 104.905 0.644245 104.25 0.386547C103.598 0.128849 102.875 0 102.078 0H98.1V10.24H102.078C102.875 10.24 103.598 10.1135 104.25 9.86048C104.905 9.60278 105.465 9.24669 105.929 8.7922C106.393 8.33302 106.752 7.79186 107.004 7.1687ZM104.763 3.74585C104.894 4.15348 104.96 4.61032 104.96 5.11634C104.96 5.62705 104.894 6.08622 104.763 6.49385C104.631 6.90148 104.442 7.24821 104.194 7.53401C103.95 7.81515 103.65 8.03301 103.293 8.18764C102.937 8.33756 102.532 8.41254 102.078 8.41254H100.49V1.82717H102.078C102.532 1.82717 102.937 1.90447 103.293 2.0591C103.65 2.20904 103.95 2.4269 104.194 2.71271C104.442 2.99384 104.631 3.33822 104.763 3.74585ZM86.468 10.2278C86.6242 10.2278 86.7543 10.1893 86.8585 10.1124C86.9626 10.0355 87.046 9.94803 87.1084 9.85013L89.2327 6.54912C89.2848 6.47453 89.3317 6.38594 89.3733 6.28337L91.654 9.85013C91.7164 9.9527 91.801 10.0413 91.9077 10.1159C92.0145 10.1905 92.1537 10.2278 92.3256 10.2278H94.9654L91.318 4.88465L94.8873 0.0380435H92.3568C92.1329 0.0380435 91.9559 0.135955 91.8257 0.331777L89.8419 3.381C89.8003 3.44162 89.7626 3.4999 89.7287 3.55585C89.6949 3.61179 89.6649 3.67008 89.6389 3.73069L87.374 0.296809C87.3114 0.203561 87.2398 0.137121 87.1592 0.09749C87.0785 0.057859 86.9522 0.0380435 86.7804 0.0380435H84.1406L87.6629 4.98955L84 10.2278H86.468ZM112.875 6.45183V10.24H110.5V0H113.831C114.572 0 115.201 0.0773086 115.721 0.231928C116.247 0.381862 116.673 0.592705 117 0.864459C117.333 1.13622 117.575 1.45717 117.725 1.82732C117.874 2.19746 117.95 2.60041 117.95 3.03615C117.95 3.36882 117.905 3.68274 117.816 3.97793C117.727 4.27311 117.593 4.54721 117.415 4.80021C117.242 5.04854 117.027 5.2711 116.769 5.46789C116.516 5.66468 116.223 5.82633 115.89 5.95284C116.05 6.03249 116.197 6.13088 116.333 6.24802C116.474 6.36515 116.595 6.50806 116.699 6.67673L118.877 10.24H116.726C116.328 10.24 116.043 10.0901 115.869 9.7902L114.169 6.81729C114.093 6.6861 114.004 6.59239 113.901 6.53617C113.802 6.47994 113.662 6.45183 113.48 6.45183H112.875ZM112.875 4.81441H113.831C114.154 4.81441 114.428 4.77458 114.653 4.69493C114.883 4.6106 115.07 4.4958 115.216 4.35056C115.361 4.20531 115.466 4.03664 115.532 3.84452C115.598 3.64774 115.63 3.4369 115.63 3.21199C115.63 2.76219 115.483 2.41079 115.187 2.15777C114.897 1.90476 114.445 1.77826 113.831 1.77826H112.875V4.81441Z" fill="#A4A4A4"/><path fill-rule="evenodd" clip-rule="evenodd" d="M37.7082 16.4893C38.6035 16.4893 39.101 17.0116 39.101 17.8821C39.101 18.7525 38.5787 19.2748 37.6836 19.2748C36.8131 19.2748 36.3157 18.7525 36.3157 17.8821C36.3157 17.0116 36.8377 16.4893 37.7082 16.4893ZM37.7075 15.1953C35.9419 15.1953 34.8228 16.2399 34.8228 17.8814C34.8228 19.5477 35.9419 20.5674 37.7075 20.5674C39.4734 20.5674 40.5926 19.5228 40.5926 17.8814C40.5926 16.2399 39.4734 15.1953 37.7075 15.1953ZM25.9979 18.2298H24.63L25.1772 16.6381H25.4507L25.9979 18.2298ZM26.5196 15.3442H24.0822L22.3164 20.4179H23.8833L24.2563 19.3733H26.3455L26.6937 20.4179H28.2854L26.5196 15.3442ZM4.48256 18.8019C4.48256 19.1252 4.30847 19.2745 3.86079 19.2745H2.49289V18.3294H3.86079C4.30847 18.3294 4.48256 18.4786 4.48256 18.8019ZM4.38308 16.9366C4.38308 17.2599 4.20898 17.3842 3.78618 17.3842V17.4091H2.49289V16.5138H3.78618C4.18411 16.5138 4.38308 16.6381 4.38308 16.9366ZM4.18348 15.3452H1V20.394H4.084C5.20319 20.394 5.99906 20.0209 5.99906 18.9763C5.99906 18.3794 5.67574 18.0312 5.02909 17.7825C5.65087 17.5836 5.87471 17.1856 5.87471 16.6136C5.87471 15.768 5.22806 15.3452 4.18348 15.3452ZM6.82129 15.3696L9.0348 18.8018H9.05967V20.4184H10.5768V18.8018L12.7903 15.3696H11.124L9.85554 17.3842H9.78093L8.53738 15.3696H6.82129ZM19.4555 17.9815C19.928 17.9815 20.127 17.683 20.127 17.2851C20.127 16.8374 19.9032 16.5887 19.4306 16.5887H18.2368V17.9815H19.4555ZM16.7688 15.3452H19.7284C20.972 15.3452 21.6435 16.0664 21.6435 17.2354C21.6435 18.5535 20.7979 19.1753 19.6289 19.1753H18.2859V20.4188H16.7688V15.3452ZM29.626 15.3452H31.1431V19.1007H33.8292L33.7794 20.4188H29.626V15.3452ZM46.7389 18.2295H48.1068L47.5596 16.6377H47.286L46.7389 18.2295ZM46.1916 15.3452H48.6293L50.3948 20.4188H48.8031L48.4549 19.3743H46.3657L45.9927 20.4188H44.4507L46.1916 15.3452ZM53.256 15.3452H51.7389V20.4188H55.8921L55.9418 19.1007H53.256V15.3452ZM58.0554 16.6629H56.2896L56.3395 15.3696H61.2886L61.3384 16.6629H59.5728V20.4184H58.0554V16.6629ZM65.2417 16.4893C66.1371 16.4893 66.6345 17.0116 66.6345 17.8821C66.6345 18.7525 66.1122 19.2748 65.2169 19.2748C64.3464 19.2748 63.849 18.7525 63.849 17.8821C63.849 17.0116 64.3464 16.4893 65.2417 16.4893ZM65.2411 15.1953C63.4753 15.1953 62.3561 16.2399 62.3561 17.8814C62.3561 19.5477 63.4753 20.5674 65.2411 20.5674C67.0069 20.5674 68.1261 19.5228 68.1261 17.8814C68.1261 16.2399 67.0069 15.1953 65.2411 15.1953ZM72.4312 15.3452H73.9983L76.1869 18.2302H76.2115V15.3452H77.6541V20.4188H76.1369L73.8985 17.4841H73.8739V20.4188H72.4312V15.3452ZM83.8936 15.3452H79.4665H79.4414V20.394H83.9682L84.0179 19.1753H80.9588V18.3794H83.2964V17.2602H80.9588V16.5638H83.9433L83.8936 15.3452ZM87.0031 16.6629H85.2371L85.2871 15.3696H90.2364L90.2861 16.6629H88.5203V20.4184H87.0031V16.6629ZM93.0212 15.3452H91.4045L92.7473 20.4188H94.737L95.6821 17.3597H95.7072L96.6272 20.4188H98.6169L99.9599 15.3452H98.4179L97.5972 18.852H97.5228L96.478 15.3452H94.9857L93.9165 18.852H93.8419L93.0212 15.3452ZM105.234 17.8821C105.234 17.0116 104.736 16.4893 103.841 16.4893C102.946 16.4893 102.448 17.0116 102.448 17.8821C102.448 18.7525 102.946 19.2748 103.816 19.2748C104.736 19.2748 105.234 18.7525 105.234 17.8821ZM100.955 17.8814C100.955 16.2399 102.075 15.1953 103.84 15.1953C105.606 15.1953 106.726 16.2399 106.726 17.8814C106.726 19.5228 105.606 20.5674 103.84 20.5674C102.075 20.5674 100.955 19.5477 100.955 17.8814ZM111.726 17.2348C111.726 17.6328 111.527 17.9063 111.03 17.9063H109.786V16.5882H111.03C111.553 16.5882 111.726 16.8618 111.726 17.2348ZM111.227 15.3447H108.267V20.3935H109.785V19.0505H110.779L111.725 20.3935H113.441L112.247 18.7769C112.919 18.5282 113.242 17.981 113.242 17.1603C113.242 15.9913 112.57 15.3447 111.227 15.3447ZM114.808 15.3452H116.325V17.2105H116.947L118.44 15.3452H120.156L118.216 17.7577L120.255 20.394H118.489L116.947 18.454H116.325V20.394H114.808V15.3452ZM121.274 18.7027V20.0954C122.021 20.369 122.717 20.568 123.587 20.568C125.378 20.568 126 19.7224 126 18.9016C126 17.8322 125.229 17.484 124.035 17.285C123.949 17.2706 123.868 17.2574 123.791 17.245C123.076 17.1285 122.792 17.0822 122.792 16.8125C122.792 16.5886 123.04 16.4394 123.612 16.4394C124.259 16.4394 125.08 16.6632 125.677 17.0114V15.6435C125.055 15.3948 124.358 15.2456 123.712 15.2456C122.07 15.2456 121.25 15.9669 121.25 16.912C121.25 17.9317 122.021 18.2799 123.214 18.4788C124.309 18.6529 124.483 18.7275 124.483 18.9762C124.483 19.225 124.209 19.3493 123.662 19.3493C122.941 19.3493 122.12 19.1255 121.274 18.7027Z" fill="#A4A4A4"/><path fill-rule="evenodd" clip-rule="evenodd" d="M19.0407 7.98878C17.4289 7.98878 16.1616 6.92473 16.1616 5.11677C16.1616 3.29537 17.4289 2.24476 19.0407 2.24476C20.6665 2.24476 21.9479 3.29537 21.9479 5.11677C21.9479 6.92473 20.6665 7.98878 19.0407 7.98878ZM19.0407 10.2343C22.4704 10.2343 24.7292 8.1775 24.7292 5.11715C24.7292 2.07027 22.4704 0 19.0407 0C15.6378 0 13.3802 2.05681 13.3802 5.11715C13.3802 8.1775 15.6378 10.2343 19.0407 10.2343ZM6.09907 10.1895C2.2131 10.1895 0 8.10574 0 5.13284C0 2.29311 2.34658 0.0493164 6.1283 0.0493164C7.53549 0.0493164 8.65921 0.323738 9.68758 0.758239V3.13656C8.6948 2.61059 7.67786 2.16128 6.26051 2.16128C4.03215 2.16128 2.56649 3.32624 2.56649 5.11805C2.56649 6.95425 3.97367 8.07615 6.23127 8.07615C7.64226 8.07615 8.6948 7.62954 9.68758 7.09684V9.45633C8.67065 9.89218 7.50498 10.1895 6.09907 10.1895ZM33.3123 4.76908H30.8856V2.21857H33.4305C34.8683 2.21857 35.4542 2.67056 35.4542 3.4871C35.4542 4.34668 34.7348 4.76908 33.3123 4.76908ZM38.0347 3.44348C38.0347 1.44586 36.6123 0.266113 33.9289 0.266113H28.3344V9.97041H30.8856V6.64777H32.7695L35.6004 9.97041H38.519L35.4683 6.45944C36.9936 6.05049 38.0347 5.01737 38.0347 3.44348ZM44.9549 2.35033H41.102V0.266602H51.3591V2.35033H47.5062V9.9709H44.9549V2.35033ZM54.9756 9.9709H63.8547V7.98808H57.4835V5.96354H62.2123V4.15694H57.4835V2.24809H63.8547V0.266602H54.9756V9.9709ZM77.927 0.266602L73.811 5.04611L78.0453 9.9709H74.922L72.2004 6.75587L69.489 9.9709H66.4688L70.703 5.07436L66.5844 0.266602H69.7077L72.3122 3.51796L74.9067 0.266602H77.927Z" fill="white"/></svg><svg viewBox="0 0 140 21" fill="none" id="icon-xsiam-text" xmlns="http://www.w3.org/2000/svg"><path fill-rule="evenodd" clip-rule="evenodd" d="M101.926 9.98211C101.427 10.154 100.86 10.24 100.225 10.24C99.8763 10.24 99.5228 10.2079 99.1616 10.1437C98.8004 10.0795 98.4513 9.98899 98.1131 9.87207C97.7749 9.75516 97.4575 9.61648 97.1609 9.45601C96.8632 9.29555 96.6049 9.11674 96.3849 8.9196L97.1532 7.83302C97.209 7.75049 97.2889 7.68401 97.3907 7.63358C97.4936 7.58315 97.603 7.55793 97.7212 7.55793C97.8745 7.55793 98.0299 7.60149 98.1864 7.6886C98.3418 7.77571 98.5191 7.87198 98.7161 7.97744C98.9131 8.08288 99.1397 8.17916 99.3958 8.26628C99.6519 8.35339 99.954 8.39694 100.302 8.39694C100.773 8.39694 101.139 8.3041 101.4 8.11842C101.661 7.93274 101.792 7.63817 101.792 7.2347C101.792 7.00089 101.721 6.81062 101.577 6.66391C101.434 6.5172 101.246 6.39571 101.012 6.29942C100.779 6.20314 100.514 6.11833 100.218 6.04497C99.9201 5.97161 99.6158 5.89024 99.3039 5.80084C98.9909 5.71143 98.6866 5.6014 98.39 5.47073C98.0923 5.34007 97.8274 5.16814 97.5943 4.95495C97.3612 4.74176 97.1729 4.47584 97.0306 4.1572C96.8872 3.83856 96.815 3.44543 96.815 2.97779C96.815 2.60184 96.8993 2.23506 97.0689 1.87745C97.2375 1.51984 97.4859 1.2012 97.8132 0.921526C98.1415 0.641862 98.5432 0.418356 99.0193 0.251014C99.4954 0.0836708 100.04 0 100.656 0C100.998 0 101.332 0.024069 101.657 0.0722093C101.982 0.120348 102.291 0.191412 102.583 0.285399C102.874 0.379386 103.148 0.491712 103.401 0.622377C103.654 0.753042 103.881 0.900895 104.08 1.06594L103.436 2.14565C103.358 2.25569 103.278 2.33822 103.194 2.39323C103.108 2.44825 103 2.47575 102.866 2.47575C102.749 2.47575 102.622 2.44251 102.487 2.37603C102.351 2.30955 102.198 2.23506 102.026 2.15253C101.854 2.07 101.658 1.99551 101.438 1.92903C101.218 1.86255 100.968 1.82931 100.686 1.82931C100.199 1.82931 99.8369 1.92215 99.5994 2.10783C99.3608 2.29351 99.2415 2.54453 99.2415 2.86087C99.2415 3.0626 99.3137 3.22995 99.4571 3.36291C99.6005 3.49585 99.7887 3.61048 100.022 3.70675C100.254 3.80304 100.521 3.8913 100.82 3.97152C101.12 4.05176 101.426 4.14116 101.738 4.23973C102.05 4.3383 102.356 4.45407 102.655 4.58702C102.955 4.71998 103.221 4.88962 103.454 5.09593C103.687 5.30224 103.876 5.55325 104.019 5.84897C104.162 6.14468 104.233 6.50115 104.233 6.91836C104.233 7.38142 104.145 7.81468 103.965 8.21813C103.786 8.62159 103.526 8.97347 103.186 9.27377C102.846 9.57407 102.425 9.81018 101.926 9.98211ZM86.8109 10.0166C86.7084 10.0922 86.5805 10.13 86.4268 10.13H84L87.6019 4.97907L84.1382 0.110091H86.734C86.903 0.110091 87.0272 0.129575 87.1065 0.168546C87.1859 0.207516 87.2562 0.272849 87.3177 0.364543L89.5449 3.7412C89.5705 3.68159 89.6 3.62429 89.6333 3.56928C89.6665 3.51426 89.7036 3.45695 89.7446 3.39734L91.6953 0.398928C91.8233 0.20637 91.9974 0.110091 92.2176 0.110091H94.7059L91.1961 4.87592L94.7826 10.13H92.1868C92.0178 10.13 91.8809 10.0933 91.7759 10.02C91.671 9.94664 91.5878 9.85952 91.5264 9.75866L89.2838 6.25134C89.2428 6.3522 89.1968 6.43932 89.1455 6.51267L87.0566 9.75866C86.9952 9.85494 86.9132 9.9409 86.8109 10.0166ZM109.784 10.13V0.110091H107.172V10.13H109.784ZM114.942 9.97529C114.793 10.0784 114.611 10.13 114.396 10.13H112.369L116.7 0.110091H119.357L123.689 10.13H121.676C121.452 10.13 121.266 10.083 121.12 9.98905C120.974 9.89505 120.873 9.77471 120.816 9.628L120.156 7.88121H115.902L115.241 9.628C115.189 9.75637 115.09 9.87213 114.942 9.97529ZM119.558 6.29921H116.501L117.529 3.56901C117.606 3.39479 117.688 3.18847 117.776 2.95007C117.862 2.71167 117.948 2.45262 118.028 2.17296C118.116 2.44804 118.205 2.70364 118.293 2.93975C118.383 3.17586 118.462 3.38104 118.528 3.55525L119.558 6.29921ZM128.301 4.36701V10.13H126.013V0.110091H127.995C128.108 0.110091 128.206 0.112383 128.29 0.116967C128.375 0.121552 128.45 0.135307 128.517 0.15823C128.584 0.181154 128.644 0.216686 128.698 0.264825C128.751 0.312965 128.804 0.38059 128.854 0.467699L131.735 5.54987C131.837 5.7241 131.935 5.90519 132.03 6.09317C132.126 6.28114 132.216 6.4737 132.303 6.67085C132.39 6.46912 132.482 6.27312 132.58 6.08285C132.677 5.89258 132.777 5.70805 132.879 5.52924L135.752 0.467699C135.802 0.38059 135.855 0.312965 135.909 0.264825C135.963 0.216686 136.023 0.181154 136.089 0.15823C136.156 0.135307 136.231 0.121552 136.315 0.116967C136.401 0.112383 136.499 0.110091 136.612 0.110091H138.593V10.13H136.304V4.36701C136.304 4.08734 136.32 3.78475 136.35 3.45924L133.385 8.61018C133.293 8.77066 133.17 8.89214 133.013 8.97467C132.857 9.05719 132.679 9.09846 132.479 9.09846H132.127C131.926 9.09846 131.749 9.05719 131.593 8.97467C131.436 8.89214 131.312 8.77066 131.22 8.61018L128.24 3.45236C128.261 3.61283 128.276 3.77214 128.286 3.93032C128.297 4.08849 128.301 4.23406 128.301 4.36701Z" fill="#A4A4A4"/><path fill-rule="evenodd" clip-rule="evenodd" d="M37.7082 16.4893C38.6035 16.4893 39.101 17.0116 39.101 17.8821C39.101 18.7525 38.5787 19.2748 37.6836 19.2748C36.8131 19.2748 36.3157 18.7525 36.3157 17.8821C36.3157 17.0116 36.8377 16.4893 37.7082 16.4893ZM37.7075 15.1953C35.9419 15.1953 34.8228 16.2399 34.8228 17.8814C34.8228 19.5477 35.9419 20.5674 37.7075 20.5674C39.4734 20.5674 40.5926 19.5228 40.5926 17.8814C40.5926 16.2399 39.4734 15.1953 37.7075 15.1953ZM25.9979 18.2298H24.63L25.1772 16.6381H25.4507L25.9979 18.2298ZM26.5196 15.3442H24.0822L22.3164 20.4179H23.8833L24.2563 19.3733H26.3455L26.6937 20.4179H28.2854L26.5196 15.3442ZM4.48256 18.8019C4.48256 19.1252 4.30847 19.2745 3.86079 19.2745H2.49289V18.3294H3.86079C4.30847 18.3294 4.48256 18.4786 4.48256 18.8019ZM4.38308 16.9366C4.38308 17.2599 4.20898 17.3842 3.78618 17.3842V17.4091H2.49289V16.5138H3.78618C4.18411 16.5138 4.38308 16.6381 4.38308 16.9366ZM4.18348 15.3452H1V20.394H4.084C5.20319 20.394 5.99906 20.0209 5.99906 18.9763C5.99906 18.3794 5.67574 18.0312 5.02909 17.7825C5.65087 17.5836 5.87471 17.1856 5.87471 16.6136C5.87471 15.768 5.22806 15.3452 4.18348 15.3452ZM6.82129 15.3696L9.0348 18.8018H9.05967V20.4184H10.5768V18.8018L12.7903 15.3696H11.124L9.85554 17.3842H9.78093L8.53738 15.3696H6.82129ZM19.4555 17.9815C19.928 17.9815 20.127 17.683 20.127 17.2851C20.127 16.8374 19.9032 16.5887 19.4306 16.5887H18.2368V17.9815H19.4555ZM16.7688 15.3452H19.7284C20.972 15.3452 21.6435 16.0664 21.6435 17.2354C21.6435 18.5535 20.7979 19.1753 19.6289 19.1753H18.2859V20.4188H16.7688V15.3452ZM29.626 15.3452H31.1431V19.1007H33.8292L33.7794 20.4188H29.626V15.3452ZM46.7389 18.2295H48.1068L47.5596 16.6377H47.286L46.7389 18.2295ZM46.1916 15.3452H48.6293L50.3948 20.4188H48.8031L48.4549 19.3743H46.3657L45.9927 20.4188H44.4507L46.1916 15.3452ZM53.256 15.3452H51.7389V20.4188H55.8921L55.9418 19.1007H53.256V15.3452ZM58.0554 16.6629H56.2896L56.3395 15.3696H61.2886L61.3384 16.6629H59.5728V20.4184H58.0554V16.6629ZM65.2417 16.4893C66.1371 16.4893 66.6345 17.0116 66.6345 17.8821C66.6345 18.7525 66.1122 19.2748 65.2169 19.2748C64.3464 19.2748 63.849 18.7525 63.849 17.8821C63.849 17.0116 64.3464 16.4893 65.2417 16.4893ZM65.2411 15.1953C63.4753 15.1953 62.3561 16.2399 62.3561 17.8814C62.3561 19.5477 63.4753 20.5674 65.2411 20.5674C67.0069 20.5674 68.1261 19.5228 68.1261 17.8814C68.1261 16.2399 67.0069 15.1953 65.2411 15.1953ZM72.4312 15.3452H73.9983L76.1869 18.2302H76.2115V15.3452H77.6541V20.4188H76.1369L73.8985 17.4841H73.8739V20.4188H72.4312V15.3452ZM83.8936 15.3452H79.4665H79.4414V20.394H83.9682L84.0179 19.1753H80.9588V18.3794H83.2964V17.2602H80.9588V16.5638H83.9433L83.8936 15.3452ZM87.0031 16.6629H85.2371L85.2871 15.3696H90.2364L90.2861 16.6629H88.5203V20.4184H87.0031V16.6629ZM93.0212 15.3452H91.4045L92.7473 20.4188H94.737L95.6821 17.3597H95.7072L96.6272 20.4188H98.6169L99.9599 15.3452H98.4179L97.5972 18.852H97.5228L96.478 15.3452H94.9857L93.9165 18.852H93.8419L93.0212 15.3452ZM105.234 17.8821C105.234 17.0116 104.736 16.4893 103.841 16.4893C102.946 16.4893 102.448 17.0116 102.448 17.8821C102.448 18.7525 102.946 19.2748 103.816 19.2748C104.736 19.2748 105.234 18.7525 105.234 17.8821ZM100.955 17.8814C100.955 16.2399 102.075 15.1953 103.84 15.1953C105.606 15.1953 106.726 16.2399 106.726 17.8814C106.726 19.5228 105.606 20.5674 103.84 20.5674C102.075 20.5674 100.955 19.5477 100.955 17.8814ZM111.726 17.2348C111.726 17.6328 111.527 17.9063 111.03 17.9063H109.786V16.5882H111.03C111.553 16.5882 111.726 16.8618 111.726 17.2348ZM111.227 15.3447H108.267V20.3935H109.785V19.0505H110.779L111.725 20.3935H113.441L112.247 18.7769C112.919 18.5282 113.242 17.981 113.242 17.1603C113.242 15.9913 112.57 15.3447 111.227 15.3447ZM114.808 15.3452H116.325V17.2105H116.947L118.44 15.3452H120.156L118.216 17.7577L120.255 20.394H118.489L116.947 18.454H116.325V20.394H114.808V15.3452ZM121.274 18.7027V20.0954C122.021 20.369 122.717 20.568 123.587 20.568C125.378 20.568 126 19.7224 126 18.9016C126 17.8322 125.229 17.484 124.035 17.285C123.949 17.2706 123.868 17.2574 123.791 17.245C123.076 17.1285 122.792 17.0822 122.792 16.8125C122.792 16.5886 123.04 16.4394 123.612 16.4394C124.259 16.4394 125.08 16.6632 125.677 17.0114V15.6435C125.055 15.3948 124.358 15.2456 123.712 15.2456C122.07 15.2456 121.25 15.9669 121.25 16.912C121.25 17.9317 122.021 18.2799 123.214 18.4788C124.309 18.6529 124.483 18.7275 124.483 18.9762C124.483 19.225 124.209 19.3493 123.662 19.3493C122.941 19.3493 122.12 19.1255 121.274 18.7027Z" fill="#A4A4A4"/><path fill-rule="evenodd" clip-rule="evenodd" d="M19.0407 7.98878C17.4289 7.98878 16.1616 6.92473 16.1616 5.11677C16.1616 3.29537 17.4289 2.24476 19.0407 2.24476C20.6665 2.24476 21.9479 3.29537 21.9479 5.11677C21.9479 6.92473 20.6665 7.98878 19.0407 7.98878ZM19.0407 10.2343C22.4704 10.2343 24.7292 8.1775 24.7292 5.11715C24.7292 2.07027 22.4704 0 19.0407 0C15.6378 0 13.3802 2.05681 13.3802 5.11715C13.3802 8.1775 15.6378 10.2343 19.0407 10.2343ZM6.09907 10.1895C2.2131 10.1895 0 8.10574 0 5.13284C0 2.29311 2.34658 0.0493164 6.1283 0.0493164C7.53549 0.0493164 8.65921 0.323738 9.68758 0.758239V3.13656C8.6948 2.61059 7.67786 2.16128 6.26051 2.16128C4.03215 2.16128 2.56649 3.32624 2.56649 5.11805C2.56649 6.95425 3.97367 8.07615 6.23127 8.07615C7.64226 8.07615 8.6948 7.62954 9.68758 7.09684V9.45633C8.67065 9.89218 7.50498 10.1895 6.09907 10.1895ZM33.3123 4.76908H30.8856V2.21857H33.4305C34.8683 2.21857 35.4542 2.67056 35.4542 3.4871C35.4542 4.34668 34.7348 4.76908 33.3123 4.76908ZM38.0347 3.44348C38.0347 1.44586 36.6123 0.266113 33.9289 0.266113H28.3344V9.97041H30.8856V6.64777H32.7695L35.6004 9.97041H38.519L35.4683 6.45944C36.9936 6.05049 38.0347 5.01737 38.0347 3.44348ZM44.9549 2.35033H41.102V0.266602H51.3591V2.35033H47.5062V9.9709H44.9549V2.35033ZM54.9756 9.9709H63.8547V7.98808H57.4835V5.96354H62.2123V4.15694H57.4835V2.24809H63.8547V0.266602H54.9756V9.9709ZM77.927 0.266602L73.811 5.04611L78.0453 9.9709H74.922L72.2004 6.75587L69.489 9.9709H66.4688L70.703 5.07436L66.5844 0.266602H69.7077L72.3122 3.51796L74.9067 0.266602H77.927Z" fill="white"/></svg><svg viewBox="0 0 140 21" fill="none" id="icon-xsoar-text" xmlns="http://www.w3.org/2000/svg"><path fill-rule="evenodd" clip-rule="evenodd" d="M111.033 10.24C114.193 10.24 116.185 8.24194 116.185 5.12C116.185 1.99805 114.193 0 111.033 0C107.886 0 105.893 1.99805 105.893 5.12C105.893 8.24194 107.886 10.24 111.033 10.24ZM111.033 8.01989C109.289 8.01989 108.305 6.93761 108.305 5.11995C108.305 3.30228 109.315 2.22 111.046 2.22C112.79 2.22 113.773 3.30228 113.773 5.11995C113.773 6.93761 112.763 8.01989 111.033 8.01989ZM100.12 10.2116C103.437 10.2116 104.316 8.44948 104.316 7.06194C104.316 4.98063 102.677 4.42563 100.802 4.07874C100.621 4.04449 100.45 4.0133 100.288 3.98384C99.0732 3.76261 98.3891 3.63807 98.3891 3.03809C98.3891 2.51083 98.8742 2.17782 100.041 2.17782C101.221 2.17782 102.624 2.60795 103.699 3.28785H103.712V0.859663C102.663 0.318524 101.392 0.0271429 100.225 0.0271429C97.3139 0.0271429 95.924 1.49792 95.924 3.21847C95.924 5.16102 97.5368 5.77153 99.4117 6.09066C101.444 6.45142 101.864 6.61792 101.864 7.18682C101.864 7.74183 101.3 8.06096 100.199 8.06096C98.9135 8.06096 97.3926 7.63083 95.9634 6.83993H95.9503V9.28199C97.1565 9.837 98.4547 10.2116 100.12 10.2116ZM86.8322 9.97654L89.3102 6.60483L91.7753 9.97654H94.673V9.96267L90.8968 4.9398L94.4239 0.277685V0.26381H91.6048L89.3627 3.31638L87.1337 0.26381H84.2492V0.277685L87.7893 4.96755L84 9.96267V9.97654H86.8322ZM119.743 9.97654H117.266L120.648 0.26381H124.437L127.807 9.97654H125.304L124.569 7.82586H120.478L119.743 9.97654ZM122.773 2.51157H122.288L121.173 5.78615H123.888L122.773 2.51157ZM129.706 9.97654H132.106V7.27085H134.191L136.013 9.97654H138.779L136.524 6.78521C137.757 6.31346 138.4 5.25893 138.4 3.67714C138.4 1.45709 137.233 0.26381 134.833 0.26381H129.706V9.97654ZM132.106 5.18997V2.4149H134.623C135.633 2.4149 135.987 2.99766 135.987 3.78855C135.987 4.59333 135.633 5.18997 134.623 5.18997H132.106Z" fill="#A4A4A4"/><path fill-rule="evenodd" clip-rule="evenodd" d="M19.0407 7.98878C17.4289 7.98878 16.1616 6.92473 16.1616 5.11677C16.1616 3.29537 17.4289 2.24476 19.0407 2.24476C20.6665 2.24476 21.9479 3.29537 21.9479 5.11677C21.9479 6.92473 20.6665 7.98878 19.0407 7.98878ZM19.0407 10.2343C22.4704 10.2343 24.7292 8.1775 24.7292 5.11715C24.7292 2.07027 22.4704 0 19.0407 0C15.6378 0 13.3802 2.05681 13.3802 5.11715C13.3802 8.1775 15.6378 10.2343 19.0407 10.2343ZM6.09907 10.1895C2.2131 10.1895 0 8.10574 0 5.13284C0 2.29311 2.34658 0.0493164 6.1283 0.0493164C7.53549 0.0493164 8.65921 0.323738 9.68758 0.758239V3.13656C8.6948 2.61059 7.67786 2.16128 6.26051 2.16128C4.03215 2.16128 2.56649 3.32624 2.56649 5.11805C2.56649 6.95425 3.97367 8.07615 6.23127 8.07615C7.64226 8.07615 8.6948 7.62954 9.68758 7.09684V9.45633C8.67065 9.89218 7.50498 10.1895 6.09907 10.1895ZM33.3123 4.76908H30.8856V2.21857H33.4305C34.8683 2.21857 35.4542 2.67056 35.4542 3.4871C35.4542 4.34668 34.7348 4.76908 33.3123 4.76908ZM38.0347 3.44348C38.0347 1.44586 36.6123 0.266113 33.9289 0.266113H28.3344V9.97041H30.8856V6.64777H32.7695L35.6004 9.97041H38.519L35.4683 6.45944C36.9936 6.05049 38.0347 5.01737 38.0347 3.44348ZM44.9549 2.35033H41.102V0.266602H51.3591V2.35033H47.5062V9.9709H44.9549V2.35033ZM54.9756 9.9709H63.8547V7.98808H57.4835V5.96354H62.2123V4.15694H57.4835V2.24809H63.8547V0.266602H54.9756V9.9709ZM77.927 0.266602L73.811 5.04611L78.0453 9.9709H74.922L72.2004 6.75587L69.489 9.9709H66.4688L70.703 5.07436L66.5844 0.266602H69.7077L72.3122 3.51796L74.9067 0.266602H77.927Z" fill="white"/><path fill-rule="evenodd" clip-rule="evenodd" d="M37.7082 16.4893C38.6035 16.4893 39.101 17.0116 39.101 17.8821C39.101 18.7525 38.5787 19.2748 37.6836 19.2748C36.8131 19.2748 36.3157 18.7525 36.3157 17.8821C36.3157 17.0116 36.8377 16.4893 37.7082 16.4893ZM37.7075 15.1953C35.9419 15.1953 34.8228 16.2399 34.8228 17.8814C34.8228 19.5477 35.9419 20.5674 37.7075 20.5674C39.4734 20.5674 40.5926 19.5228 40.5926 17.8814C40.5926 16.2399 39.4734 15.1953 37.7075 15.1953ZM25.9979 18.2298H24.63L25.1772 16.6381H25.4507L25.9979 18.2298ZM26.5196 15.3442H24.0822L22.3164 20.4179H23.8833L24.2563 19.3733H26.3455L26.6937 20.4179H28.2854L26.5196 15.3442ZM4.48256 18.8019C4.48256 19.1252 4.30847 19.2745 3.86079 19.2745H2.49289V18.3294H3.86079C4.30847 18.3294 4.48256 18.4786 4.48256 18.8019ZM4.38308 16.9366C4.38308 17.2599 4.20898 17.3842 3.78618 17.3842V17.4091H2.49289V16.5138H3.78618C4.18411 16.5138 4.38308 16.6381 4.38308 16.9366ZM4.18348 15.3452H1V20.394H4.084C5.20319 20.394 5.99906 20.0209 5.99906 18.9763C5.99906 18.3794 5.67574 18.0312 5.02909 17.7825C5.65087 17.5836 5.87471 17.1856 5.87471 16.6136C5.87471 15.768 5.22806 15.3452 4.18348 15.3452ZM6.82129 15.3696L9.0348 18.8018H9.05967V20.4184H10.5768V18.8018L12.7903 15.3696H11.124L9.85554 17.3842H9.78093L8.53738 15.3696H6.82129ZM19.4555 17.9815C19.928 17.9815 20.127 17.683 20.127 17.2851C20.127 16.8374 19.9032 16.5887 19.4306 16.5887H18.2368V17.9815H19.4555ZM16.7688 15.3452H19.7284C20.972 15.3452 21.6435 16.0664 21.6435 17.2354C21.6435 18.5535 20.7979 19.1753 19.6289 19.1753H18.2859V20.4188H16.7688V15.3452ZM29.626 15.3452H31.1431V19.1007H33.8292L33.7794 20.4188H29.626V15.3452ZM46.7389 18.2295H48.1068L47.5596 16.6377H47.286L46.7389 18.2295ZM46.1916 15.3452H48.6293L50.3948 20.4188H48.8031L48.4549 19.3743H46.3657L45.9927 20.4188H44.4507L46.1916 15.3452ZM53.256 15.3452H51.7389V20.4188H55.8921L55.9418 19.1007H53.256V15.3452ZM58.0554 16.6629H56.2896L56.3395 15.3696H61.2886L61.3384 16.6629H59.5728V20.4184H58.0554V16.6629ZM65.2417 16.4893C66.1371 16.4893 66.6345 17.0116 66.6345 17.8821C66.6345 18.7525 66.1122 19.2748 65.2169 19.2748C64.3464 19.2748 63.849 18.7525 63.849 17.8821C63.849 17.0116 64.3464 16.4893 65.2417 16.4893ZM65.2411 15.1953C63.4753 15.1953 62.3561 16.2399 62.3561 17.8814C62.3561 19.5477 63.4753 20.5674 65.2411 20.5674C67.0069 20.5674 68.1261 19.5228 68.1261 17.8814C68.1261 16.2399 67.0069 15.1953 65.2411 15.1953ZM72.4312 15.3452H73.9983L76.1869 18.2302H76.2115V15.3452H77.6541V20.4188H76.1369L73.8985 17.4841H73.8739V20.4188H72.4312V15.3452ZM83.8936 15.3452H79.4665H79.4414V20.394H83.9682L84.0179 19.1753H80.9588V18.3794H83.2964V17.2602H80.9588V16.5638H83.9433L83.8936 15.3452ZM87.0031 16.6629H85.2371L85.2871 15.3696H90.2364L90.2861 16.6629H88.5203V20.4184H87.0031V16.6629ZM93.0212 15.3452H91.4045L92.7473 20.4188H94.737L95.6821 17.3597H95.7072L96.6272 20.4188H98.6169L99.9599 15.3452H98.4179L97.5972 18.852H97.5228L96.478 15.3452H94.9857L93.9165 18.852H93.8419L93.0212 15.3452ZM105.234 17.8821C105.234 17.0116 104.736 16.4893 103.841 16.4893C102.946 16.4893 102.448 17.0116 102.448 17.8821C102.448 18.7525 102.946 19.2748 103.816 19.2748C104.736 19.2748 105.234 18.7525 105.234 17.8821ZM100.955 17.8814C100.955 16.2399 102.075 15.1953 103.84 15.1953C105.606 15.1953 106.726 16.2399 106.726 17.8814C106.726 19.5228 105.606 20.5674 103.84 20.5674C102.075 20.5674 100.955 19.5477 100.955 17.8814ZM111.726 17.2348C111.726 17.6328 111.527 17.9063 111.03 17.9063H109.786V16.5882H111.03C111.553 16.5882 111.726 16.8618 111.726 17.2348ZM111.227 15.3447H108.267V20.3935H109.785V19.0505H110.779L111.725 20.3935H113.441L112.247 18.7769C112.919 18.5282 113.242 17.981 113.242 17.1603C113.242 15.9913 112.57 15.3447 111.227 15.3447ZM114.808 15.3452H116.325V17.2105H116.947L118.44 15.3452H120.156L118.216 17.7577L120.255 20.394H118.489L116.947 18.454H116.325V20.394H114.808V15.3452ZM121.274 18.7027V20.0954C122.021 20.369 122.717 20.568 123.587 20.568C125.378 20.568 126 19.7224 126 18.9016C126 17.8322 125.229 17.484 124.035 17.285C123.949 17.2706 123.868 17.2574 123.791 17.245C123.076 17.1285 122.792 17.0822 122.792 16.8125C122.792 16.5886 123.04 16.4394 123.612 16.4394C124.259 16.4394 125.08 16.6632 125.677 17.0114V15.6435C125.055 15.3948 124.358 15.2456 123.712 15.2456C122.07 15.2456 121.25 15.9669 121.25 16.912C121.25 17.9317 122.021 18.2799 123.214 18.4788C124.309 18.6529 124.483 18.7275 124.483 18.9762C124.483 19.225 124.209 19.3493 123.662 19.3493C122.941 19.3493 122.12 19.1255 121.274 18.7027Z" fill="#A4A4A4"/></svg></svg>